<?xml version="1.0" standalone="no"?>
<!DOCTYPE svg PUBLIC "-//W3C//DTD SVG 20010904//EN"
 "http://www.w3.org/TR/2001/REC-SVG-20010904/DTD/svg10.dtd">
<svg version="1.0" xmlns="http://www.w3.org/2000/svg"
 width="2052.000000pt" height="817.000000pt" viewBox="0 0 2052.000000 817.000000"
 preserveAspectRatio="xMidYMid meet">

<g transform="translate(0.000000,817.000000) scale(0.100000,-0.100000)"
fill="#FFFFFF" stroke="none">
<path d="M6778 7583 c-21 -3 -38 -8 -38 -12 0 -4 -15 -13 -34 -19 -23 -9 -36
-21 -42 -40 -9 -33 -5 -76 7 -80 5 -2 7 -8 3 -13 -3 -5 2 -12 11 -15 9 -4 13
-13 10 -24 -5 -15 27 -55 44 -55 6 0 7 -5 10 -35 1 -13 2 -13 11 0 9 13 10 13
11 0 1 -8 1 -19 0 -24 -3 -13 50 -66 65 -66 7 0 14 -12 16 -27 2 -16 7 -27 12
-25 5 2 14 -7 20 -20 7 -14 19 -22 30 -20 13 2 16 -1 12 -15 -3 -10 2 -30 12
-45 38 -59 98 -127 111 -128 8 0 11 -3 8 -7 -4 -3 0 -15 9 -25 13 -14 16 -30
11 -74 -8 -81 -11 -83 -130 -77 -143 8 -263 -10 -351 -52 -87 -40 -211 -127
-227 -158 -7 -12 -31 -43 -53 -69 -41 -48 -74 -102 -100 -170 -19 -48 -37 -48
-60 -1 -35 73 -142 193 -173 193 -7 0 -29 -15 -48 -32 -50 -47 -85 -152 -85
-258 0 -44 -4 -80 -8 -80 -16 0 -32 24 -32 47 0 13 -12 47 -26 75 -24 47 -25
57 -19 134 4 47 11 87 16 90 5 3 9 18 9 34 0 22 11 38 49 70 42 35 52 50 61
93 10 50 10 51 -22 84 -17 18 -39 35 -48 38 -13 4 -19 23 -24 77 -9 100 -62
178 -122 178 -12 0 -26 5 -29 10 -3 6 -39 10 -80 10 -66 0 -81 -4 -152 -40
-84 -44 -123 -87 -123 -137 1 -26 2 -25 14 10 17 46 30 62 80 99 39 28 62 37
51 18 -3 -5 1 -20 9 -32 13 -21 13 -25 -4 -45 -10 -13 -24 -23 -32 -23 -8 0
-9 -3 -3 -8 14 -10 17 -32 5 -32 -6 0 -10 -11 -10 -25 0 -14 -6 -34 -12 -46
-11 -17 -10 -22 11 -38 30 -23 50 -81 52 -153 1 -43 5 -55 15 -51 16 6 19 -8
5 -22 -5 -6 -14 -27 -20 -47 -7 -20 -19 -42 -27 -48 -19 -17 -19 -61 0 -54 11
4 13 -1 10 -18 -2 -13 -1 -17 2 -9 11 23 34 -46 27 -79 -3 -16 -12 -35 -19
-41 -23 -19 -16 -32 12 -25 17 5 23 3 19 -4 -3 -5 -13 -10 -21 -10 -8 0 -17
-13 -20 -30 -4 -16 -10 -28 -14 -25 -9 6 -23 -25 -15 -33 2 -3 12 1 22 9 15
12 16 12 10 -4 -4 -10 -7 -23 -7 -28 0 -6 -5 -7 -10 -4 -14 8 -8 -52 7 -81 7
-11 8 -26 4 -33 -14 -21 -5 -93 12 -102 11 -7 15 -22 13 -59 -2 -28 1 -53 6
-56 4 -3 6 -10 2 -15 -3 -5 0 -16 6 -24 10 -12 10 -15 1 -15 -7 0 -11 -10 -9
-22 2 -15 -2 -23 -12 -23 -9 0 -14 7 -12 18 2 9 -2 17 -8 17 -13 0 -13 -16 0
-40 6 -11 17 -17 24 -14 9 3 17 -3 21 -16 4 -12 13 -19 20 -16 18 6 26 -30 10
-44 -18 -15 -17 -63 1 -56 12 5 12 2 3 -16 -6 -12 -20 -30 -30 -41 -9 -11 -15
-25 -12 -33 8 -21 18 -17 34 14 8 15 22 34 32 43 9 9 15 23 12 31 -3 8 1 21
10 28 8 7 15 9 15 5 0 -5 9 0 20 10 11 10 20 14 20 9 0 -15 -35 -41 -49 -36
-8 3 -12 -1 -9 -9 3 -8 13 -13 22 -11 19 4 46 -15 46 -31 0 -7 -4 -7 -12 1
-13 13 -42 17 -34 4 2 -4 -3 -16 -11 -27 -13 -16 -15 -17 -10 -2 4 11 1 17 -8
17 -10 0 -15 -10 -14 -32 0 -18 -2 -45 -6 -60 -5 -18 -3 -28 4 -28 6 0 11 8
11 18 0 11 8 28 18 40 9 11 22 29 29 39 11 16 12 16 7 1 -4 -11 -1 -18 6 -18
8 0 11 -9 7 -26 -3 -16 0 -28 9 -31 10 -4 12 -16 8 -43 -4 -23 -2 -40 5 -44 7
-5 11 2 11 18 0 14 5 28 11 32 6 3 8 17 5 30 -4 14 -2 24 4 24 11 0 12 -10 12
-82 0 -27 5 -48 10 -48 6 0 8 -8 5 -19 -3 -14 1 -18 19 -18 15 0 24 6 25 16 0
10 2 11 6 4 2 -7 11 -13 19 -13 8 0 14 -7 14 -15 0 -8 -4 -15 -10 -15 -5 0
-10 5 -10 12 0 6 -2 9 -5 6 -8 -8 6 -39 15 -33 4 2 15 -4 24 -14 16 -17 15
-20 -9 -42 -13 -13 -25 -30 -25 -36 0 -26 18 -12 41 31 13 25 27 42 32 39 4
-3 1 -13 -8 -23 -26 -29 -13 -48 13 -22 l22 22 0 -42 c0 -25 -7 -49 -17 -60
-9 -10 -13 -21 -9 -26 4 -4 15 2 25 14 9 11 23 18 30 16 8 -3 18 3 23 12 5 9
14 13 20 10 6 -4 9 -3 5 2 -3 5 1 18 8 28 13 17 14 15 11 -15 -2 -19 -10 -51
-19 -71 -21 -46 -21 -54 -2 -34 8 8 15 19 15 25 0 5 6 14 13 18 8 4 16 18 19
31 4 12 2 20 -3 16 -5 -3 -9 0 -9 5 0 6 18 19 40 28 22 10 40 23 40 30 0 7 9
13 20 13 14 0 18 -5 14 -17 -5 -15 -4 -16 5 -3 15 21 14 30 -5 30 -14 0 -14 3
-4 16 16 18 56 41 46 26 -3 -6 4 -18 16 -27 21 -14 21 -17 6 -26 -30 -17 -48
-40 -48 -60 0 -17 3 -18 21 -9 32 17 34 4 5 -23 -33 -31 -33 -41 0 -33 24 6
24 6 -8 -24 -21 -20 -29 -33 -21 -36 21 -9 -16 -56 -39 -51 -11 3 -22 -1 -25
-9 -8 -22 2 -27 27 -14 26 14 41 3 20 -13 -40 -31 -43 -45 -19 -79 13 -18 27
-35 32 -37 4 -1 1 -8 -7 -15 -8 -6 -18 -23 -21 -37 -5 -22 -1 -30 23 -48 25
-18 42 -21 104 -19 83 3 155 -7 175 -23 7 -7 55 -18 106 -25 97 -14 159 -27
242 -50 28 -8 71 -17 98 -20 47 -7 60 -17 32 -28 -8 -3 -15 -12 -15 -21 0 -8
-4 -15 -9 -15 -11 0 -61 -50 -61 -61 0 -5 7 -9 15 -9 8 0 15 6 15 14 0 7 9 16
20 19 17 4 20 0 20 -28 0 -18 3 -40 6 -49 5 -12 0 -16 -17 -16 -16 0 -28 -9
-36 -25 -9 -20 -8 -25 3 -25 8 0 14 7 14 15 0 8 7 15 15 15 8 0 15 -6 15 -14
0 -8 5 -16 12 -18 8 -3 3 -14 -15 -32 -15 -15 -27 -28 -27 -30 0 -2 12 -7 26
-10 25 -7 26 -8 9 -26 -10 -11 -14 -20 -9 -20 5 -1 -2 -7 -15 -14 l-24 -14 21
-6 c28 -9 28 -17 -3 -72 -19 -34 -21 -44 -10 -44 17 0 20 -16 4 -26 -6 -3 -9
-17 -6 -31 3 -15 -1 -26 -9 -29 -8 -2 -21 -6 -29 -9 -21 -6 -8 -34 14 -28 27
7 45 -21 29 -46 -7 -12 -18 -21 -25 -21 -7 0 -13 -7 -13 -15 0 -8 7 -15 15
-15 8 0 15 -6 15 -14 0 -8 2 -21 5 -28 3 -8 -5 -20 -19 -28 -35 -18 -118 4
-108 29 5 13 3 14 -9 5 -8 -6 -29 -14 -47 -16 -31 -4 -33 -3 -27 20 5 22 4 24
-9 13 -9 -7 -24 -10 -37 -6 -13 5 -25 2 -29 -6 -7 -10 -11 -10 -24 1 -23 18
-91 16 -122 -5 -22 -14 -28 -15 -35 -4 -6 11 -42 14 -151 15 -79 0 -160 -2
-180 -4 -34 -4 -38 -8 -38 -33 0 -22 5 -29 20 -29 18 0 18 -1 -3 -23 -12 -13
-23 -22 -24 -22 -8 4 -9 92 -1 101 5 7 -1 38 -17 80 -14 38 -36 96 -48 128
-23 60 -88 146 -112 146 -7 0 -16 6 -19 13 -4 9 -7 9 -12 0 -3 -8 -24 -1 -63
21 -40 23 -61 30 -71 23 -10 -6 -39 1 -91 21 -103 41 -188 58 -230 46 -30 -8
-34 -14 -37 -47 -4 -48 -22 -55 -64 -24 -18 13 -41 27 -50 30 -10 4 -18 13
-18 20 0 8 -17 21 -37 30 -21 9 -51 25 -68 35 -26 16 -100 41 -130 44 -6 1
-38 18 -70 37 -60 36 -60 37 -63 88 -3 51 -3 52 36 72 52 26 86 74 106 146 9
33 23 85 31 115 8 30 15 73 16 95 1 71 18 87 18 18 1 -70 21 -88 22 -20 l1 42
13 -32 c8 -17 16 -58 18 -90 3 -33 10 -69 17 -80 13 -20 14 -20 43 11 77 82
109 248 89 461 -6 63 -16 124 -22 134 -5 11 -10 34 -10 51 0 36 -23 85 -56
119 -23 23 -25 23 -44 6 -11 -10 -20 -25 -20 -32 0 -8 -14 -47 -32 -86 -34
-78 -39 -135 -23 -303 5 -56 4 -84 -4 -88 -8 -5 -12 14 -13 61 -2 98 -3 106
-11 129 -11 33 -20 85 -21 126 0 20 -3 35 -7 33 -3 -3 -6 6 -6 20 0 36 -47
127 -118 230 -70 101 -85 115 -170 172 -106 71 -246 100 -434 90 l-118 -7 -23
73 c-13 39 -31 90 -41 112 -17 39 -30 95 -34 145 -2 14 -10 50 -19 80 -19 66
-48 179 -81 315 -13 55 -31 118 -39 140 -9 22 -20 60 -25 85 -5 25 -23 98 -40
164 -17 65 -33 130 -36 145 -11 62 -51 163 -67 172 -26 14 -33 -11 -20 -64 6
-23 16 -80 22 -127 6 -47 17 -114 25 -150 7 -36 16 -96 20 -135 3 -38 10 -83
15 -100 10 -30 22 -93 80 -405 16 -91 37 -192 45 -225 8 -34 22 -108 30 -165
l14 -105 -27 -22 c-15 -12 -40 -25 -55 -28 -69 -16 -251 -165 -282 -232 -9
-18 -20 -33 -25 -33 -6 0 -10 -7 -10 -15 0 -8 -4 -23 -9 -33 -60 -114 -70
-207 -49 -486 2 -22 -2 -41 -8 -43 -15 -5 -63 44 -97 100 -16 26 -32 47 -37
47 -4 0 -22 -12 -39 -27 -27 -24 -31 -34 -31 -80 0 -75 40 -246 63 -269 4 -4
7 -15 7 -24 0 -9 20 -54 45 -100 25 -46 45 -87 45 -91 0 -4 4 -9 10 -11 5 -1
36 -30 70 -62 46 -45 70 -61 101 -66 39 -7 43 -5 77 31 42 45 52 47 92 19 17
-11 43 -29 60 -40 16 -11 35 -20 42 -20 7 0 19 -10 27 -22 12 -19 11 -23 -5
-35 -10 -7 -25 -13 -35 -13 -9 0 -19 -8 -22 -19 -2 -11 -33 -32 -73 -52 -86
-41 -134 -78 -256 -201 -101 -101 -139 -148 -119 -148 6 0 11 -10 11 -23 0
-20 -7 -25 -48 -33 l-47 -9 -9 -95 c-16 -169 -13 -240 14 -295 31 -65 83 -121
124 -135 18 -5 66 -11 107 -13 84 -3 79 5 60 -102 -6 -33 -11 -105 -11 -161 0
-76 -5 -115 -21 -160 -26 -74 -66 -203 -84 -269 -8 -27 -28 -99 -44 -160 -17
-60 -31 -132 -31 -158 0 -26 -6 -58 -14 -70 -20 -30 -65 -358 -67 -482 0 -56
4 -113 11 -130 13 -35 8 -180 -9 -243 -6 -24 -20 -60 -31 -80 -33 -63 -35 -65
-58 -53 -17 9 -21 8 -25 -7 -3 -9 -5 -1 -6 18 -1 27 -4 31 -11 20 -7 -11 -10
-1 -10 34 0 48 -24 91 -82 149 -10 10 -18 24 -18 32 0 13 -46 83 -83 125 -18
22 -46 131 -56 221 -5 41 -14 85 -20 97 -7 13 -9 37 -5 56 3 21 -1 56 -10 89
-18 62 -20 179 -5 247 6 25 14 86 19 135 4 50 16 137 25 195 13 81 17 176 18
410 l2 305 -35 65 c-19 36 -33 68 -32 73 1 4 -2 7 -7 7 -5 0 -12 10 -15 23
-27 92 -36 134 -35 170 4 102 -30 261 -69 321 -14 23 -40 57 -58 76 -40 44
-54 93 -54 195 0 55 -8 108 -26 170 -14 50 -32 119 -39 154 -8 35 -21 73 -28
85 -8 12 -18 37 -22 56 -4 19 -16 46 -26 59 -11 13 -19 34 -19 47 0 13 -3 24
-8 24 -12 0 -79 64 -85 82 -6 17 -62 28 -152 30 -78 1 -250 31 -260 45 -5 7
-34 16 -63 20 -40 4 -50 9 -42 18 8 9 6 14 -6 19 -9 4 -14 9 -11 12 7 7 68
-12 152 -46 49 -20 208 -51 214 -41 3 4 28 8 55 9 29 0 52 6 57 14 6 10 11 10
20 1 8 -8 18 -9 31 -2 12 6 18 6 18 -1 0 -21 28 -9 34 14 4 15 15 26 27 28 12
2 27 12 33 22 19 33 42 53 72 63 17 6 30 18 32 30 2 11 14 26 27 33 14 7 27
21 30 32 10 28 34 48 61 48 21 0 24 4 22 31 -3 37 20 53 29 20 7 -27 33 -27
40 -1 3 11 9 17 14 15 16 -10 58 7 64 26 8 23 23 25 32 3 4 -10 -19 -39 -71
-89 -42 -40 -76 -79 -76 -85 0 -7 -9 -24 -20 -40 -11 -15 -17 -29 -15 -32 3
-3 -6 -11 -20 -18 -14 -7 -25 -17 -25 -21 0 -5 -12 -15 -27 -23 -16 -9 -21
-15 -13 -16 15 0 -18 -24 -52 -36 -26 -9 -29 -42 -5 -59 19 -13 22 -12 36 8 8
12 25 31 38 42 13 11 23 26 23 33 0 7 7 15 15 19 19 7 48 60 40 73 -3 5 0 7 8
5 7 -3 30 7 50 23 20 16 51 35 69 41 18 7 49 20 68 28 19 8 80 30 135 48 55
18 114 41 132 51 32 19 32 19 46 0 8 -11 19 -16 26 -12 9 6 9 11 -1 24 -11 13
-11 14 2 10 9 -3 14 -16 13 -30 -1 -27 -68 -138 -82 -138 -5 0 -11 -9 -14 -20
-3 -11 -1 -20 4 -20 5 0 9 4 9 9 0 4 18 29 40 54 22 25 40 52 40 60 0 9 5 17
12 19 17 6 12 73 -8 103 -9 14 -28 28 -43 32 -14 3 -31 12 -37 18 -7 6 -55 20
-108 30 l-96 18 0 46 c1 47 18 125 34 149 4 7 8 68 8 135 0 91 -4 132 -16 161
-9 21 -16 47 -16 57 0 10 -8 26 -18 36 -19 19 -72 99 -72 108 0 4 -6 12 -13
20 -6 7 -25 30 -42 50 -16 21 -47 54 -68 74 -56 52 -60 64 -40 108 10 21 21
40 24 43 3 3 28 53 54 113 49 111 99 172 130 161 8 -4 15 -9 15 -13 0 -23 -59
-164 -85 -202 -18 -26 -38 -67 -45 -93 -11 -41 -11 -51 5 -86 l18 -40 49 27
c39 21 56 40 83 87 18 34 36 80 40 103 8 49 52 108 128 173 107 91 257 283
324 415 76 150 105 226 93 245 -5 8 -16 1 -36 -25 -16 -20 -57 -71 -90 -112
-34 -40 -73 -99 -88 -129 -58 -117 -249 -349 -284 -342 -11 2 -20 21 -29 57
-13 61 -52 108 -94 113 -49 6 -178 -114 -235 -217 -92 -170 -128 -226 -150
-231 -11 -3 -48 4 -80 15 -33 11 -71 22 -85 24 -13 3 -42 12 -64 20 -68 26
-204 31 -295 10 -44 -10 -80 -21 -80 -25 0 -5 -9 -8 -20 -8 -11 0 -23 -7 -26
-15 -4 -8 -12 -15 -20 -15 -8 0 -14 -4 -14 -10 0 -5 -7 -10 -15 -10 -7 0 -18
-6 -22 -13 -4 -7 -26 -26 -48 -43 -22 -16 -42 -33 -44 -37 -10 -23 -99 -107
-113 -107 -10 0 -25 12 -35 26 -10 14 -30 41 -46 59 -15 18 -27 35 -27 39 0
14 -65 66 -83 66 -10 0 -67 -97 -67 -113 0 -10 -4 -17 -10 -17 -5 0 -10 -8
-10 -17 0 -10 -9 -33 -20 -51 -11 -18 -20 -39 -20 -47 0 -7 -6 -20 -13 -27
-19 -20 -47 -155 -47 -223 2 -128 16 -200 51 -259 30 -50 37 -56 60 -52 34 6
55 -17 62 -69 14 -98 24 -144 34 -157 18 -23 25 -69 12 -84 -19 -23 -41 -16
-113 36 -38 28 -77 50 -87 50 -10 0 -21 5 -24 10 -8 13 -42 5 -140 -32 -67
-26 -89 -41 -138 -92 -78 -82 -102 -148 -94 -258 5 -57 13 -90 32 -123 14 -25
25 -52 25 -60 0 -7 14 -16 30 -20 17 -4 38 -17 46 -31 15 -22 13 -29 -39 -136
-53 -108 -59 -116 -152 -198 l-97 -85 -149 4 -149 3 0 -133 c0 -98 4 -141 15
-159 8 -14 19 -35 24 -48 13 -27 125 -82 168 -82 41 0 113 24 180 59 32 17 73
31 91 31 18 0 47 7 63 16 17 8 42 14 57 12 26 -3 27 -5 23 -58 -1 -30 -7 -60
-12 -66 -5 -6 -16 -42 -25 -80 -13 -55 -15 -90 -8 -174 11 -139 12 -375 1
-475 -10 -96 8 -761 24 -884 6 -47 19 -113 29 -146 10 -33 23 -96 30 -140 6
-44 18 -115 26 -157 8 -42 19 -108 24 -145 8 -64 17 -101 55 -218 17 -49 21
-63 44 -118 19 -49 14 -106 -14 -139 -14 -16 -25 -42 -25 -56 -1 -26 -20 -62
-34 -62 -4 0 -17 -11 -30 -25 -13 -14 -28 -25 -35 -25 -9 0 -35 -34 -76 -99
-5 -9 -16 -20 -23 -24 -6 -4 -12 -14 -12 -21 0 -8 -7 -19 -15 -26 -8 -7 -15
-23 -15 -36 0 -13 -5 -34 -11 -48 -38 -82 68 -130 281 -129 87 1 183 17 188
31 2 7 8 12 13 12 6 0 8 -4 5 -9 -6 -9 23 -25 31 -17 7 6 5 39 -3 64 -6 22 -5
23 15 10 12 -7 19 -19 16 -26 -3 -7 0 -10 6 -7 6 4 8 13 5 21 -9 24 14 62 35
57 26 -7 37 40 14 63 -9 9 -14 23 -11 31 3 8 6 17 6 19 0 13 29 1 33 -13 3
-11 5 -7 6 10 1 19 6 27 19 27 23 0 42 19 42 42 0 9 12 29 26 43 25 25 25 27
8 39 -17 13 -17 14 2 24 39 23 45 29 38 45 -3 9 -12 17 -20 17 -8 0 -14 7 -14
16 0 10 6 14 15 10 10 -4 15 1 15 14 0 11 -4 20 -10 20 -13 0 -13 67 0 75 5 3
10 22 10 41 0 19 5 34 10 34 6 0 10 -19 10 -42 0 -86 8 -28 14 102 5 122 4
132 -9 105 -8 -18 -12 -43 -8 -63 3 -21 -2 -49 -16 -81 -11 -27 -18 -56 -15
-64 7 -19 -8 -28 -26 -16 -13 8 -13 10 0 18 12 8 12 13 0 36 -10 19 -11 28 -3
33 8 5 11 43 7 126 -4 110 -3 118 13 105 15 -13 16 -11 9 14 -5 23 -4 28 11
25 12 -2 17 2 14 12 -2 8 -4 20 -5 27 -1 7 -5 16 -9 19 -13 13 -7 26 8 20 9
-3 15 0 15 10 0 8 7 17 15 20 8 4 15 13 15 21 0 8 6 13 13 10 6 -2 11 -15 9
-28 -2 -17 3 -12 17 17 17 35 25 41 52 42 18 0 36 7 40 14 7 10 9 10 9 1 0 -7
11 -13 25 -13 28 0 95 -30 95 -42 0 -4 8 -8 19 -8 10 0 40 -20 67 -45 26 -25
56 -45 66 -45 19 0 122 -123 138 -165 5 -14 14 -25 19 -25 15 0 61 -49 61 -65
0 -7 17 -22 37 -32 35 -16 39 -22 44 -68 24 -201 31 -244 41 -272 7 -18 16
-33 20 -33 4 0 8 -9 8 -19 0 -11 11 -33 25 -49 14 -17 25 -33 25 -36 0 -4 10
-20 22 -37 30 -41 102 -79 157 -83 25 -3 56 -7 68 -11 l22 -7 -27 -50 c-15
-28 -33 -62 -41 -76 -22 -40 -23 -102 -4 -142 22 -42 96 -100 128 -100 13 0
25 -4 27 -9 3 -10 41 -6 215 18 35 5 82 19 106 30 24 12 46 21 50 21 4 0 38
23 77 51 60 44 68 54 58 67 -11 13 -10 15 10 10 16 -4 25 -1 32 13 6 10 17 19
25 19 8 0 15 3 15 8 0 4 16 16 35 26 19 11 35 25 35 32 0 6 7 15 16 18 8 3 12
10 9 16 -3 5 -2 10 4 10 17 0 31 70 31 154 0 57 5 90 19 120 11 23 22 52 25
66 14 65 160 232 249 284 72 43 156 59 269 52 90 -5 104 -9 180 -48 46 -23
106 -64 134 -90 28 -26 56 -48 61 -48 6 0 42 -38 79 -85 38 -47 74 -85 81 -85
18 0 100 -97 158 -185 74 -114 75 -117 75 -187 0 -66 30 -149 63 -177 9 -7 19
-29 23 -50 7 -41 44 -106 92 -161 37 -43 165 -113 227 -125 81 -15 212 3 290
40 50 23 106 114 86 139 -5 6 -11 36 -13 66 -2 30 -8 64 -12 75 -4 12 -1 10 8
-5 8 -14 15 -32 16 -41 0 -21 63 -28 380 -40 135 -5 309 -13 387 -18 78 -4
157 -5 177 -2 47 8 83 42 92 86 7 37 -16 190 -42 281 -7 28 -14 69 -14 92 0
22 -4 44 -10 47 -6 4 -7 85 -4 223 6 197 4 235 -20 419 -29 224 -33 303 -14
303 7 0 26 -13 43 -29 38 -37 104 -73 175 -96 30 -10 65 -21 78 -26 13 -5 31
-9 40 -9 27 -1 66 -67 91 -155 34 -117 102 -257 137 -282 60 -42 108 -58 169
-57 120 1 195 42 267 146 53 75 60 135 41 323 -14 134 -21 163 -86 343 -7 17
-15 32 -18 32 -4 0 -20 21 -35 48 -15 26 -42 65 -61 86 l-33 40 6 120 c6 98
12 132 32 175 l24 55 -20 40 c-12 23 -21 33 -21 24 -1 -20 -16 -24 -26 -8 -3
5 -2 10 3 10 6 0 13 8 16 17 4 10 4 15 1 11 -8 -8 -45 22 -45 36 0 6 5 5 12
-2 22 -22 33 -12 46 41 16 71 15 94 -8 144 -10 24 -15 45 -10 48 10 6 30 -26
30 -49 0 -23 73 -87 143 -125 42 -22 80 -35 119 -38 l57 -6 -2 -87 c-2 -66 -6
-92 -19 -106 -71 -79 -84 -418 -33 -819 8 -60 23 -132 34 -160 64 -169 86
-220 100 -234 9 -9 60 -71 115 -139 54 -67 102 -125 107 -128 5 -3 9 -18 9
-34 0 -24 -12 -39 -67 -83 -84 -68 -115 -101 -142 -152 -28 -54 -26 -76 10
-111 l30 -29 222 1 c189 1 234 5 300 22 44 11 86 27 95 34 10 8 33 22 53 32
47 24 62 36 82 66 23 33 21 92 -3 141 -12 23 -20 55 -19 77 2 20 -4 48 -11 62
-12 23 -32 114 -47 214 -14 98 94 153 228 116 74 -21 179 -109 245 -205 87
-127 214 -364 214 -400 0 -7 7 -21 16 -29 18 -18 16 -102 -6 -220 l-12 -69 29
-23 c15 -13 44 -32 63 -41 19 -9 42 -22 50 -28 28 -21 145 -65 205 -76 65 -12
305 -5 397 12 29 5 70 12 90 15 21 4 48 18 63 34 l27 28 -22 43 c-56 110 -169
232 -282 302 -16 10 -28 26 -28 37 0 10 -12 28 -27 40 -24 19 -29 34 -45 133
-23 152 -34 207 -48 242 -7 17 -15 82 -17 145 -3 63 -11 126 -18 140 -12 25
-45 164 -64 270 -5 30 -17 84 -25 120 -31 128 -37 156 -47 240 -5 47 -16 110
-24 140 -42 156 -61 218 -71 231 -14 17 -23 54 -33 134 -5 33 -18 79 -31 103
-16 30 -21 53 -17 80 2 20 0 57 -6 82 -14 63 -58 190 -68 196 -5 3 -9 13 -9
23 0 14 14 20 68 30 37 7 76 14 87 16 11 3 58 27 104 54 57 34 95 50 116 49
36 -1 102 28 114 51 34 66 8 168 -62 244 -83 90 -199 129 -326 107 -60 -10
-86 -9 -169 5 -53 10 -115 26 -137 36 -22 9 -61 26 -87 38 -27 11 -48 26 -48
33 0 7 19 21 41 31 27 13 46 31 59 58 24 45 42 49 95 18 38 -22 79 -20 88 5 4
9 0 12 -13 9 -17 -4 -17 -1 -9 39 14 63 99 243 132 278 9 11 17 25 17 33 0 25
39 94 69 122 16 16 27 34 24 40 -6 16 23 85 35 85 14 0 34 55 30 82 -3 21 -7
23 -58 20 -47 -3 -60 -9 -90 -38 -53 -51 -60 -46 -60 44 0 153 -64 328 -157
429 -58 62 -157 130 -248 169 l-67 29 5 67 c3 37 11 77 17 88 13 24 66 50 102
50 34 0 110 52 153 104 55 68 67 136 40 230 -32 111 -153 200 -270 200 -144 0
-265 -126 -265 -276 0 -59 39 -148 88 -200 31 -32 34 -41 30 -76 -3 -21 -15
-59 -25 -83 l-20 -45 -161 -17 c-115 -12 -174 -22 -204 -37 -23 -11 -46 -20
-51 -20 -5 0 -50 -26 -99 -57 -82 -52 -198 -163 -198 -190 0 -21 -53 -104 -63
-100 -6 2 -14 13 -17 25 -8 31 -65 108 -96 128 -24 16 -28 16 -38 2 -19 -25
-9 -404 12 -485 9 -32 6 -298 -3 -313 -23 -38 -65 21 -95 135 -31 117 -30 115
-46 108 -9 -3 -14 2 -14 17 0 16 4 20 16 16 29 -11 9 17 -24 33 -31 16 -42 31
-22 31 22 0 8 42 -25 79 -19 21 -35 45 -35 53 0 17 -61 78 -78 78 -7 0 -12 7
-12 15 0 10 -10 13 -35 11 -30 -2 -34 0 -29 16 3 10 0 18 -7 18 -15 0 -50 40
-44 51 3 4 1 10 -4 13 -5 4 -12 2 -16 -4 -9 -15 -25 -12 -25 5 0 8 5 15 11 15
5 0 7 5 3 11 -4 8 -9 7 -14 -2 -7 -10 -11 -10 -24 0 -9 8 -16 19 -16 25 0 6
-9 17 -21 24 -17 11 -23 11 -37 0 -13 -11 -15 -11 -9 4 4 11 -2 22 -19 32 -16
11 -24 13 -24 5 0 -8 -7 -6 -18 4 -10 10 -24 17 -30 17 -7 0 -12 5 -12 11 0 7
10 9 27 4 l27 -6 -19 21 c-11 12 -37 31 -57 41 -38 19 -42 26 -38 64 2 27 14
37 93 79 80 43 109 45 131 11 13 -19 25 -25 52 -25 29 0 34 3 25 13 -13 17 -8
47 19 101 11 23 20 47 20 53 0 18 39 55 52 50 10 -4 10 -6 1 -6 -15 -1 -18
-31 -4 -31 5 0 12 -11 15 -25 8 -32 26 -23 27 13 l1 27 10 -27 c5 -16 14 -28
20 -28 6 0 8 -11 6 -25 -3 -14 -2 -28 2 -30 12 -7 102 67 143 117 64 78 193
345 185 383 -2 14 -7 13 -28 -7 -13 -12 -34 -21 -46 -20 -17 2 -41 -19 -103
-89 -45 -50 -81 -95 -81 -100 0 -11 -60 -52 -67 -46 -3 3 24 40 61 82 36 42
66 82 66 89 0 8 17 31 39 52 21 22 41 49 45 61 10 31 81 101 108 105 22 4 22
5 4 13 -13 6 -21 5 -24 -3 -2 -7 -8 -12 -13 -12 -6 0 -7 5 -4 10 6 10 -108
-40 -180 -78 -48 -27 -61 -27 -74 -4 -9 15 -10 15 -11 -4 0 -43 -66 -224 -81
-224 -5 0 -6 -6 -3 -14 3 -8 1 -17 -5 -21 -6 -3 -11 -17 -11 -31 0 -13 -4 -24
-9 -24 -5 0 -19 -20 -31 -45 -12 -25 -23 -45 -24 -45 -1 0 -3 12 -4 26 -1 15
-7 33 -14 41 -10 12 -9 17 5 24 20 12 23 45 5 52 -10 3 -10 8 -2 16 9 10 15 9
25 -1 21 -19 36 -20 43 -1 5 12 2 14 -14 10 -11 -3 -23 -1 -26 4 -3 5 3 9 13
9 10 0 25 8 33 18 19 22 42 73 36 79 -7 8 -32 -20 -40 -44 -7 -22 -34 -38 -45
-27 -3 3 1 11 10 17 8 7 18 19 22 27 4 8 18 32 32 52 14 22 21 40 15 43 -6 3
-10 -1 -10 -9 0 -9 -5 -16 -11 -16 -8 0 -9 13 -5 39 4 27 2 42 -6 47 -9 6 -5
10 12 14 20 5 26 13 30 45 5 36 6 37 12 15 5 -16 11 -21 17 -15 12 13 31 105
24 121 -8 21 8 39 19 23 7 -10 7 -4 3 16 -4 17 -9 54 -11 83 -8 105 -93 261
-196 357 -85 81 -98 91 -106 78 -5 -8 -13 -9 -22 -3 -13 8 -12 10 3 10 30 0
10 18 -56 51 -82 40 -90 49 -78 81 5 15 11 49 13 76 2 28 5 50 8 49 32 -7 169
53 267 117 38 24 84 53 104 64 20 11 47 26 60 34 13 7 35 25 49 39 14 14 46
34 73 44 26 10 47 22 47 26 0 5 20 18 45 30 31 15 45 27 45 41 0 25 -83 112
-136 142 -67 38 -275 95 -474 130 -170 30 -305 56 -320 62 -19 7 -143 11 -192
7z m272 -189 c30 -3 84 -14 120 -24 36 -11 108 -24 160 -30 52 -5 113 -15 135
-20 22 -5 55 -10 73 -10 17 0 32 -4 32 -10 0 -5 11 -12 25 -16 33 -8 49 -28
33 -41 -7 -6 -53 -32 -103 -58 -49 -26 -112 -63 -140 -81 -27 -19 -57 -34 -65
-34 -9 0 -20 -4 -25 -9 -24 -22 -88 -51 -115 -51 -29 0 -70 38 -70 66 0 8 -31
50 -70 95 -38 44 -70 84 -70 89 0 4 -16 24 -35 44 -23 25 -35 47 -35 66 0 32
17 41 65 34 17 -2 55 -6 85 -10z m-30 -424 c0 -5 -2 -10 -4 -10 -3 0 -8 5 -11
10 -3 6 -1 10 4 10 6 0 11 -4 11 -10z m-1220 -210 c0 -13 -11 -13 -30 0 -12 8
-11 10 8 10 12 0 22 -4 22 -10z m1370 -50 c0 -5 -4 -10 -10 -10 -5 0 -10 5
-10 10 0 6 5 10 10 10 6 0 10 -4 10 -10z m-4150 -64 c0 -3 -4 -8 -10 -11 -5
-3 -10 -1 -10 4 0 6 5 11 10 11 6 0 10 -2 10 -4z m4180 -12 c0 -17 -22 -14
-28 4 -2 7 3 12 12 12 9 0 16 -7 16 -16z m-4210 -20 c0 -8 -5 -12 -10 -9 -6 4
-8 11 -5 16 9 14 15 11 15 -7z m4293 -8 c4 -10 1 -13 -8 -9 -8 3 -12 9 -9 14
7 12 11 11 17 -5z m-313 -41 c78 -6 173 -38 244 -81 70 -42 160 -125 184 -169
32 -59 62 -140 62 -168 0 -16 5 -38 11 -49 14 -26 15 -286 1 -343 -5 -22 -23
-69 -40 -105 -17 -36 -34 -78 -38 -95 -21 -86 -82 -177 -155 -231 -34 -25 -63
-22 -32 3 10 8 13 12 6 9 -17 -9 -27 14 -13 27 10 9 11 9 5 -2 -5 -9 -4 -12 2
-8 7 5 10 83 4 119 -3 15 -58 34 -79 27 -16 -6 -24 -4 -32 11 -6 11 -16 17
-25 14 -9 -4 -15 0 -15 8 0 24 -22 39 -37 26 -10 -8 -18 -7 -31 4 -9 8 -43 21
-74 28 -32 7 -58 17 -58 22 0 4 -9 8 -19 8 -11 0 -29 12 -40 26 l-20 26 -28
-20 c-63 -45 -195 -66 -218 -36 -9 14 -16 14 -33 5 -12 -6 -22 -21 -22 -32 0
-16 5 -20 26 -17 23 3 29 -2 41 -36 7 -22 19 -47 27 -55 7 -9 18 -31 24 -49
15 -43 72 -112 95 -112 9 0 17 -4 17 -10 0 -14 -27 -12 -84 5 -27 8 -51 13
-54 10 -2 -2 -31 9 -63 25 -32 17 -65 30 -72 30 -8 0 -25 9 -38 21 l-24 21 -5
-30 c-4 -22 -8 -27 -16 -18 -6 6 -8 20 -4 31 5 15 -4 29 -40 62 -111 100 -144
275 -95 510 22 108 60 195 139 326 74 123 268 250 389 256 26 1 58 6 70 11 12
5 40 7 62 5 22 -3 65 -7 95 -10z m-484 -21 c-4 -9 -9 -15 -11 -12 -3 3 -3 13
1 22 4 9 9 15 11 12 3 -3 3 -13 -1 -22z m19 -24 c-3 -5 -11 -10 -16 -10 -6 0
-7 5 -4 10 3 6 11 10 16 10 6 0 7 -4 4 -10z m931 -38 c-4 -3 -11 0 -16 8 -15
24 -11 33 6 15 9 -9 13 -19 10 -23z m-1026 -19 c0 -7 -8 -13 -17 -13 -13 0
-15 2 -5 8 7 5 10 17 6 28 -5 16 -4 16 5 4 6 -8 11 -21 11 -27z m1064 -19 c3
-8 2 -12 -4 -9 -6 3 -10 10 -10 16 0 14 7 11 14 -7z m-1468 -2 c28 -18 58
-238 62 -452 7 -326 -9 -383 -87 -315 -37 34 -49 79 -54 200 -3 70 -11 119
-27 165 -18 51 -24 87 -24 171 -1 93 2 111 24 153 34 68 76 98 106 78z m424
-1 c0 -5 -7 -12 -16 -15 -14 -5 -15 -4 -4 9 14 17 20 19 20 6z m-56 -7 c9 -3
16 -13 16 -22 0 -8 -2 -13 -5 -10 -3 3 -19 -7 -34 -21 -23 -21 -28 -33 -24
-55 5 -25 4 -27 -13 -16 -26 16 -28 61 -3 67 10 3 19 12 19 20 0 8 3 12 8 10
4 -3 12 1 19 8 10 11 10 15 0 18 -18 8 -2 8 17 1z m-4076 -103 c57 -22 118
-43 135 -47 64 -13 157 -102 242 -229 29 -44 56 -91 60 -104 4 -14 16 -38 26
-55 16 -25 19 -27 19 -11 1 19 1 19 14 2 16 -21 30 -86 21 -95 -9 -9 -24 19
-26 48 -2 35 -17 -38 -24 -113 -3 -32 -10 -67 -15 -78 -11 -20 -30 -26 -30 -9
0 7 -6 7 -20 0 -11 -6 -20 -8 -20 -4 0 3 -7 0 -16 -7 -15 -12 -14 -15 7 -31
17 -15 19 -22 10 -31 -9 -9 -15 -9 -29 1 -9 7 -25 15 -34 18 -10 4 -18 10 -18
15 0 5 -5 9 -11 9 -14 0 -40 27 -37 37 2 4 -6 17 -17 28 -11 11 -27 30 -35 43
-18 27 -87 41 -149 30 -30 -5 -54 -18 -77 -42 -19 -19 -34 -38 -34 -42 0 -17
-35 -44 -55 -44 -12 0 -39 11 -60 25 -43 30 -58 25 -28 -8 12 -12 23 -38 26
-57 13 -81 21 -106 40 -132 l20 -27 33 34 c18 19 35 35 38 35 3 0 27 -16 53
-36 78 -60 118 -67 179 -35 45 24 58 15 69 -47 l7 -42 -34 -1 c-18 -1 -25 -3
-15 -6 15 -4 17 -17 17 -95 0 -82 2 -90 18 -83 9 3 2 -10 -17 -29 -19 -20 -37
-34 -39 -31 -3 2 6 13 19 24 13 11 22 22 19 24 -6 6 -85 9 -180 8 -49 -1 -71
-7 -89 -21 -19 -17 -21 -23 -11 -35 13 -16 9 -18 -32 -15 -27 1 -71 -27 -62
-42 3 -4 -4 -8 -16 -8 -11 0 -23 7 -26 15 -5 12 -15 14 -43 9 -20 -4 -33 -3
-29 1 11 12 -39 35 -76 36 -25 0 -20 4 29 18 40 12 61 23 63 35 3 16 -6 17
-107 15 -140 -4 -161 -11 -103 -35 43 -17 60 -42 20 -27 -13 4 -35 7 -50 7
-15 -1 -25 3 -22 7 3 5 0 9 -6 9 -19 0 -149 90 -170 118 -12 15 -40 52 -64 82
-76 97 -77 102 -73 268 4 172 14 211 84 332 78 134 98 162 144 207 24 23 64
62 88 87 24 25 50 46 58 46 7 0 13 7 13 15 0 8 12 17 28 20 15 4 42 13 61 21
38 17 135 50 166 57 46 11 75 5 173 -32z m3980 -41 c-7 -11 -16 -20 -20 -20
-5 0 -3 9 4 20 7 11 16 20 20 20 5 0 3 -9 -4 -20z m-24 -65 c-4 -8 -8 -15 -10
-15 -2 0 -4 7 -4 15 0 8 4 15 10 15 5 0 7 -7 4 -15z m1340 -40 c-4 -8 -1 -15
6 -15 6 0 8 -5 4 -11 -11 -18 -24 11 -23 51 0 31 1 32 9 12 5 -12 7 -29 4 -37z
m-41 -10 c-7 -21 -13 -19 -13 6 0 11 4 18 10 14 5 -3 7 -12 3 -20z m-28 -35
c-3 -5 -11 -10 -16 -10 -6 0 -7 5 -4 10 3 6 11 10 16 10 6 0 7 -4 4 -10z m51
-17 c-10 -10 -19 5 -10 18 6 11 8 11 12 0 2 -7 1 -15 -2 -18z m53 -50 c1 -24
-14 -31 -21 -10 -3 6 -3 30 0 52 6 40 6 40 13 10 4 -16 7 -40 8 -52z m-43 -29
c-21 -20 -28 -17 -14 5 7 11 16 17 20 15 5 -3 2 -12 -6 -20z m14 -34 c-20 -12
-33 -1 -19 16 9 11 15 12 23 4 8 -8 7 -13 -4 -20z m-2133 -79 c-1 -15 -4 -17
-14 -9 -7 5 -10 14 -7 19 10 16 23 9 21 -10z m700 -28 c-3 -10 -5 -2 -5 17 0
19 2 27 5 18 2 -10 2 -26 0 -35z m3 -75 c0 -10 -4 -18 -10 -18 -5 0 -10 15
-10 33 0 24 3 28 10 17 5 -8 10 -23 10 -32z m2939 -27 c53 -27 61 -40 68 -113
5 -58 3 -66 -20 -94 -33 -39 -106 -68 -152 -60 -21 4 -46 21 -69 46 -32 35
-36 46 -36 94 0 119 102 181 209 127z m-6292 -103 c-3 -40 -15 -98 -26 -128
-12 -30 -21 -62 -21 -71 0 -23 -74 -168 -105 -204 l-25 -30 2 35 c1 33 23 90
34 90 2 0 -3 -14 -12 -31 -8 -17 -12 -29 -7 -26 7 5 70 125 99 192 18 39 45
148 51 203 8 71 16 47 10 -30z m3349 48 c-3 -14 -2 -27 3 -31 6 -3 8 -20 6
-37 -2 -18 1 -39 7 -48 11 -13 10 -13 -4 0 -22 20 -40 110 -26 127 16 20 21
16 14 -11z m-1889 -2 c-3 -3 -12 -4 -19 -1 -8 3 -5 6 6 6 11 1 17 -2 13 -5z
m1243 -1 c0 -5 -5 -15 -10 -23 -8 -12 -10 -11 -10 8 0 12 5 22 10 22 6 0 10
-3 10 -7z m-1258 -23 c252 -56 307 -77 370 -143 22 -23 37 -35 33 -27 -5 8 1
6 12 -6 52 -52 109 -176 136 -294 25 -109 58 -370 53 -425 -8 -90 -36 -185
-68 -233 -15 -24 -28 -46 -28 -51 0 -11 -60 -64 -107 -94 -24 -15 -43 -32 -43
-37 0 -6 -6 -10 -14 -10 -7 0 -19 -7 -26 -15 -7 -9 -36 -27 -64 -41 -46 -23
-48 -25 -16 -18 19 3 59 17 88 30 60 27 62 28 62 14 0 -13 -98 -57 -145 -66
-20 -3 -38 -10 -41 -15 -3 -5 -14 -9 -24 -9 -11 0 -60 -12 -110 -26 -61 -18
-99 -24 -118 -19 -25 8 -24 9 18 17 99 19 202 52 183 59 -18 6 -68 -6 -88 -22
-6 -4 -31 -11 -55 -14 -25 -4 -60 -11 -79 -17 -23 -7 -51 -7 -95 2 -71 14
-176 49 -176 60 0 3 -7 7 -15 7 -9 0 -42 12 -74 28 -51 24 -63 35 -84 79 -14
29 -29 64 -32 79 -4 15 -11 30 -16 33 -5 3 -9 17 -9 32 0 29 -48 132 -62 132
-4 0 -8 7 -8 15 0 8 -4 15 -10 15 -5 0 -10 5 -10 12 0 6 -17 34 -38 62 -58 77
-89 204 -66 271 16 47 18 107 4 121 -5 5 -7 20 -3 33 4 17 8 19 14 9 7 -10 11
-7 15 10 9 32 22 27 16 -5 -5 -25 -4 -27 11 -14 10 7 17 18 17 23 0 5 7 16 15
24 10 10 15 35 15 74 0 76 32 147 97 216 59 63 98 86 188 112 39 11 86 24 105
30 46 13 218 15 272 2z m-1829 -72 c30 -15 57 -47 57 -67 1 -9 3 -43 6 -76 4
-44 2 -56 -5 -45 -6 8 -11 28 -11 44 0 20 -12 40 -39 67 -33 33 -45 39 -82 39
-25 0 -50 -7 -61 -17 -27 -24 -32 -10 -7 21 35 44 96 59 142 34z m3092 2 c3
-5 1 -10 -4 -10 -6 0 -11 5 -11 10 0 6 2 10 4 10 3 0 8 -4 11 -10z m35 -40 c0
-5 -4 -10 -10 -10 -5 0 -10 -7 -10 -17 0 -9 -3 -14 -6 -10 -8 8 5 47 17 47 5
0 9 -4 9 -10z m626 -36 c42 -100 24 -121 -44 -51 -48 49 -51 60 -19 75 37 18
47 14 63 -24z m23 4 c10 -30 9 -31 -4 -14 -8 11 -15 26 -15 33 0 22 8 14 19
-19z m-3609 -14 c0 -8 -5 -12 -10 -9 -6 4 -8 11 -5 16 9 14 15 11 15 -7z
m-250 -16 c0 -22 -17 -41 -29 -34 -8 5 -8 13 -1 27 12 21 30 26 30 7z m3198
-5 c-2 -9 -8 -18 -15 -20 -7 -3 -9 3 -6 16 6 25 26 28 21 4z m718 -66 c13 -16
24 -36 24 -45 0 -11 -10 -5 -30 18 -16 19 -29 46 -29 60 0 15 3 19 6 10 3 -8
17 -28 29 -43z m1165 0 c-8 -8 -11 -7 -11 4 0 9 3 19 7 23 4 4 9 2 11 -4 3 -7
-1 -17 -7 -23z m-4874 -39 c-3 -8 -6 -5 -6 6 -1 11 2 17 5 13 3 -3 4 -12 1
-19z m4088 -16 c-5 -5 -45 22 -45 31 0 4 11 0 24 -10 13 -10 23 -19 21 -21z
m803 -11 c-8 -12 -18 -18 -21 -15 -3 4 1 13 9 21 8 8 11 20 8 26 -5 9 -4 9 6
0 10 -9 9 -15 -2 -32z m-745 -3 c15 -7 27 -16 27 -20 0 -14 -21 -8 -47 12 -29
23 -20 26 20 8z m218 -26 c-37 -25 -126 -55 -111 -37 9 11 5 15 -24 21 -55 10
-43 24 17 18 31 -3 68 0 92 9 48 16 59 11 26 -11z m459 9 c0 -6 -4 -13 -10
-16 -5 -3 -10 1 -10 9 0 9 5 16 10 16 6 0 10 -4 10 -9z m-4440 -65 c0 -8 -7
-16 -15 -20 -15 -5 -21 14 -8 27 11 12 23 8 23 -7z m2785 -86 c6 -20 5 -23 -5
-13 -7 7 -15 25 -16 40 -3 31 8 16 21 -27z m465 22 c0 -20 74 -101 101 -111
16 -5 29 -17 29 -25 0 -23 -28 -20 -35 4 -8 26 -35 26 -42 0 -3 -11 -9 -18
-13 -15 -5 3 -6 15 -3 26 5 18 3 20 -16 14 -17 -5 -21 -2 -23 17 -2 42 -3 47
-11 54 -11 11 -9 44 3 44 6 0 10 -4 10 -8z m-3550 -6 c0 -2 -7 -9 -15 -16 -13
-11 -14 -10 -9 4 5 14 24 23 24 12z m2488 -74 c13 -10 17 -35 20 -119 6 -161
-25 -275 -73 -265 -13 2 -26 14 -30 25 -4 12 -8 24 -9 27 -1 3 -10 19 -19 37
-27 50 -21 119 18 229 37 104 67 146 73 102 2 -13 11 -29 20 -36z m-3534 -34
c26 -37 20 -55 -9 -28 -25 24 -33 50 -16 50 6 0 17 -10 25 -22z m4277 -11
c-10 -9 -11 -8 -5 6 3 10 9 15 12 12 3 -3 0 -11 -7 -18z m59 -14 c0 -11 -44
-73 -53 -73 -10 0 8 33 27 49 9 8 13 17 10 22 -3 5 0 9 5 9 6 0 11 -3 11 -7z
m47 1 c-3 -3 -12 -4 -19 -1 -8 3 -5 6 6 6 11 1 17 -2 13 -5z m-87 -18 c0 -3
-4 -8 -10 -11 -5 -3 -10 -1 -10 4 0 6 5 11 10 11 6 0 10 -2 10 -4z m2940 -21
c25 -7 70 -19 100 -25 61 -13 190 -76 262 -127 58 -42 132 -150 153 -224 17
-61 23 -219 12 -309 -27 -225 -137 -458 -252 -537 -29 -20 -90 -43 -70 -26 15
12 25 71 13 72 -42 4 -50 1 -38 -14 10 -12 9 -16 -6 -21 -11 -3 -28 -10 -39
-17 -79 -44 -168 -67 -180 -47 -3 5 -2 10 3 10 5 0 22 16 37 35 l27 36 -29 -6
c-15 -4 -49 -15 -75 -26 -26 -10 -57 -19 -69 -19 -35 0 -10 -17 41 -28 l45
-10 -45 -1 c-76 -1 -170 25 -285 80 -60 29 -118 53 -128 54 -10 1 -31 11 -47
23 -16 12 -34 22 -39 22 -15 0 -75 79 -100 131 -37 80 -48 142 -46 267 3 172
55 387 121 507 63 114 165 177 344 211 76 15 225 9 290 -11z m-2680 5 c0 -5
-4 -10 -10 -10 -5 0 -10 5 -10 10 0 6 5 10 10 10 6 0 10 -4 10 -10z m-4175
-50 c8 -7 15 -9 15 -4 0 4 6 1 13 -8 6 -9 21 -18 32 -21 16 -4 16 -5 -5 -6
-31 -2 -168 49 -174 65 -6 15 96 -7 119 -26z m495 27 c0 -2 -10 -12 -22 -23
l-23 -19 19 23 c18 21 26 27 26 19z m-360 -71 c0 -9 -30 -14 -35 -6 -4 6 3 10
14 10 12 0 21 -2 21 -4z m50 -11 c0 -8 -6 -15 -14 -15 -20 0 -29 17 -14 23 22
9 28 7 28 -8z m37 -11 c-3 -3 -12 -4 -19 -1 -8 3 -5 6 6 6 11 1 17 -2 13 -5z
m-380 -20 c-3 -3 -12 -4 -19 -1 -8 3 -5 6 6 6 11 1 17 -2 13 -5z m68 -54 c3
-5 1 -10 -4 -10 -6 0 -11 5 -11 10 0 6 2 10 4 10 3 0 8 -4 11 -10z m13 -46 c5
-9 20 -17 32 -18 40 -2 32 -21 -17 -45 -45 -22 -48 -22 -87 -6 -85 35 -93 50
-36 70 51 19 97 18 108 -1z m72 -82 c0 -5 -9 -17 -20 -27 -17 -15 -22 -16 -36
-4 -15 12 -14 15 12 26 35 15 44 16 44 5z m5680 -82 c0 -5 -4 -10 -10 -10 -5
0 -10 5 -10 10 0 6 5 10 10 10 6 0 10 -4 10 -10z m-1470 -25 c-7 -9 -15 -13
-19 -10 -3 3 1 10 9 15 21 14 24 12 10 -5z m1450 -9 c0 -3 -4 -8 -10 -11 -5
-3 -10 -1 -10 4 0 6 5 11 10 11 6 0 10 -2 10 -4z m56 -62 c-4 -9 -9 -15 -11
-12 -3 3 -3 13 1 22 4 9 9 15 11 12 3 -3 3 -13 -1 -22z m364 -63 c0 -11 -4
-23 -10 -26 -6 -4 -10 5 -10 19 0 14 5 26 10 26 6 0 10 -9 10 -19z m-14 -83
c-2 -24 -5 -58 -5 -76 -1 -22 -5 -31 -12 -26 -18 11 -2 144 17 144 3 0 3 -19
0 -42z m-11 -166 c-5 -13 -8 -14 -15 -3 -5 9 -3 22 3 33 10 16 12 16 15 3 2
-9 1 -24 -3 -33z m14 -64 c1 -5 -3 -8 -8 -8 -12 0 -22 30 -14 43 6 10 20 -13
22 -35z m-3864 12 c-3 -5 -36 -10 -73 -9 -77 1 -59 13 24 17 36 2 53 -1 49 -8z
m3860 -40 c3 -5 1 -10 -4 -10 -6 0 -11 5 -11 10 0 6 2 10 4 10 3 0 8 -4 11
-10z m-5671 -64 c-3 -14 -10 -26 -15 -26 -12 0 -11 4 3 35 14 31 21 26 12 -9z
m5686 -6 c0 -13 -1 -13 -10 0 -5 8 -10 22 -10 30 0 13 1 13 10 0 5 -8 10 -22
10 -30z m-6633 -10 c278 -31 397 -52 445 -77 37 -19 47 -30 42 -42 -3 -9 -10
-29 -14 -46 -4 -16 -19 -67 -34 -112 -15 -45 -24 -87 -20 -94 4 -7 3 -9 -4 -5
-6 3 -13 -5 -16 -21 -8 -35 -3 -155 5 -141 6 10 16 -35 28 -133 5 -48 4 -56
-8 -51 -10 4 -8 -4 7 -25 12 -18 18 -34 13 -37 -5 -4 -12 0 -14 6 -4 10 -6 10
-6 0 -1 -8 8 -16 19 -19 22 -6 27 -19 9 -25 -8 -3 -6 -15 4 -41 9 -21 12 -39
6 -42 -5 -4 -9 -11 -9 -16 0 -6 5 -7 12 -3 8 5 9 2 5 -9 -3 -10 -2 -17 3 -17
6 0 10 -4 10 -9 0 -16 -42 -20 -92 -9 -40 10 -47 15 -42 30 3 10 1 18 -5 18
-6 0 -11 -7 -11 -16 0 -13 -7 -15 -37 -11 -21 3 -103 11 -183 17 -80 6 -170
16 -200 22 -30 6 -81 13 -113 16 -47 3 -61 8 -73 28 -25 38 -33 276 -26 736 2
94 6 129 17 138 24 20 106 28 147 14 20 -7 80 -17 135 -24z m903 -28 c0 -13
-67 -82 -79 -82 -6 0 4 16 24 35 19 20 35 40 35 45 0 6 5 10 10 10 6 0 10 -4
10 -8z m3470 -33 c0 -5 -4 -9 -10 -9 -5 0 -10 7 -10 16 0 8 5 12 10 9 6 -3 10
-10 10 -16z m2304 -29 c10 -13 9 -13 -6 -1 -10 7 -17 23 -17 35 1 20 2 20 6 1
3 -11 10 -27 17 -35z m-5951 -16 c-16 -24 -18 -26 -22 -9 -2 10 5 25 15 32 25
18 28 9 7 -23z m234 0 c-3 -3 -12 -4 -19 -1 -8 3 -5 6 6 6 11 1 17 -2 13 -5z
m2088 -12 c0 -6 10 -19 23 -27 12 -9 22 -23 22 -31 0 -20 30 -30 41 -13 8 11
10 10 8 -6 -3 -35 1 -45 15 -45 7 0 21 -10 29 -22 14 -20 18 -21 26 -8 9 12
11 9 11 -13 0 -19 4 -27 13 -24 6 2 12 9 12 15 0 5 3 14 8 18 6 7 11 -19 10
-54 -1 -6 3 -46 8 -87 7 -65 5 -83 -12 -129 -12 -30 -36 -69 -55 -88 -41 -40
-42 -53 -6 -66 l27 -10 -25 -2 c-18 -1 -12 -5 22 -15 69 -19 81 -35 75 -98 -8
-78 -26 -220 -43 -331 -8 -54 -13 -101 -10 -104 4 -3 6 3 6 13 0 10 3 16 6 12
10 -10 -5 -58 -16 -52 -6 3 -10 -1 -10 -9 0 -9 5 -16 11 -16 7 0 10 -14 7 -35
-2 -19 0 -35 4 -35 4 0 8 -5 8 -11 0 -5 -4 -7 -10 -4 -6 4 -10 -8 -10 -29 0
-20 -5 -36 -11 -36 -8 0 -8 -4 0 -14 9 -11 9 -22 -3 -49 -18 -45 -47 -60 -100
-54 -95 13 -184 27 -226 37 -31 7 -55 8 -72 1 -14 -5 -88 -12 -164 -16 -122
-6 -150 -4 -229 14 -49 12 -108 29 -131 38 l-41 17 3 91 c3 87 14 190 34 305
5 30 12 92 16 138 l7 82 -33 -7 c-50 -10 -34 15 36 54 53 30 124 44 124 26 0
-5 15 -9 33 -10 24 -1 27 0 12 6 -19 8 -19 8 2 15 15 5 31 2 45 -8 21 -15 21
-16 3 -16 -20 0 72 -64 108 -76 28 -9 94 5 76 17 -12 7 -11 9 3 9 9 0 20 -4
23 -10 3 -5 12 -10 18 -9 9 0 9 2 0 5 -7 3 -9 12 -6 20 6 16 53 20 53 4 0 -6
10 -5 25 2 21 9 28 8 38 -4 8 -11 18 -13 32 -8 17 7 17 9 3 9 -10 1 -18 9 -18
19 0 9 4 13 8 7 4 -5 24 -10 45 -10 30 0 37 4 37 20 0 15 5 12 22 -15 12 -20
20 -47 19 -64 -2 -19 1 -26 9 -21 6 4 8 15 5 26 -4 11 -2 19 5 19 6 0 9 8 6
18 -7 23 8 47 24 37 10 -6 12 -2 8 13 -7 27 16 30 31 5 6 -10 11 -13 11 -8 0
6 -7 21 -16 33 -14 21 -14 22 7 22 12 0 19 3 16 7 -4 3 1 12 11 19 29 21 5 29
-107 32 l-108 4 2 -24 c2 -16 -10 -38 -39 -69 -46 -50 -76 -67 -76 -43 0 8 7
17 15 20 8 4 15 10 15 16 0 5 10 20 23 34 88 94 144 273 121 385 -11 56 -70
151 -99 163 -23 8 -18 56 8 78 18 16 31 19 70 14 32 -5 47 -3 47 4 0 7 6 10
13 8 6 -3 12 -10 12 -16z m3025 -17 c8 -7 40 -23 70 -35 30 -12 79 -33 108
-46 29 -13 55 -24 57 -24 3 0 49 -22 102 -48 54 -26 124 -58 156 -71 31 -13
57 -29 57 -36 0 -13 -60 -69 -122 -115 -43 -32 -209 -209 -259 -276 -51 -70
-109 -180 -109 -209 0 -13 -3 -30 -6 -39 -11 -30 -19 -16 -16 28 2 23 -4 65
-13 91 -9 27 -23 96 -31 154 -8 58 -18 107 -22 108 -4 2 -6 22 -5 44 0 23 -8
62 -18 86 -25 58 -24 70 7 138 28 60 28 102 2 201 -18 67 -3 85 42 49z m-5290
5 c0 -5 -5 -10 -11 -10 -5 0 -7 5 -4 10 3 6 8 10 11 10 2 0 4 -4 4 -10z m138
-14 c2 -2 5 -15 6 -29 3 -21 -2 -26 -26 -29 -21 -4 -27 -1 -24 9 3 7 0 13 -7
14 -7 0 -31 2 -54 4 -32 2 -43 0 -43 -11 0 -18 -8 -18 -26 1 -17 17 -21 14 61
39 43 13 100 14 113 2z m1387 -146 c-3 -5 -12 -10 -18 -10 -7 0 -6 4 3 10 19
12 23 12 15 0z m-1894 -123 c-10 -9 -11 -8 -5 6 3 10 9 15 12 12 3 -3 0 -11
-7 -18z m4159 -97 c0 -5 -5 -10 -11 -10 -5 0 -7 5 -4 10 3 6 8 10 11 10 2 0 4
-4 4 -10z m-500 -114 c0 -43 37 -51 158 -37 152 18 224 32 247 50 l20 16 -20
-24 c-18 -21 -18 -24 -2 -18 9 4 17 2 17 -4 0 -14 -46 -29 -97 -31 -25 -2 -40
-4 -34 -6 6 -2 8 -8 5 -13 -3 -6 -12 -5 -21 3 -14 11 -15 10 -9 -10 8 -25 4
-27 -24 -12 -11 6 -17 17 -14 25 5 11 -1 15 -22 15 l-27 0 23 -24 c13 -15 20
-31 16 -41 -3 -9 -2 -13 4 -10 6 3 15 3 22 -1 8 -5 6 -11 -6 -19 -14 -11 -15
-17 -4 -40 9 -21 9 -31 0 -46 -10 -15 -10 -19 0 -19 7 0 19 -14 27 -31 12 -28
11 -32 -10 -55 -12 -13 -28 -24 -34 -24 -6 0 -22 -11 -35 -25 -19 -21 -21 -25
-7 -25 9 0 17 4 17 9 0 5 12 16 26 26 l27 17 -7 -26 c-4 -15 -2 -26 4 -26 5 0
10 9 10 19 0 10 6 21 14 24 8 3 20 22 27 41 7 20 17 36 21 36 13 0 9 -12 -27
-84 -25 -50 -33 -76 -28 -97 5 -27 33 -42 33 -18 0 11 40 48 53 49 17 0 -15
-39 -47 -59 -40 -25 -46 -26 -46 -6 0 18 -16 20 -27 3 -4 -7 -16 -14 -26 -14
-17 -2 -17 0 -3 15 22 24 20 34 -4 21 -20 -11 -28 -50 -10 -50 6 0 10 -7 10
-16 0 -8 5 -12 11 -9 6 4 8 12 6 19 -3 7 13 11 47 12 51 0 52 0 34 -18 -10
-10 -23 -16 -28 -13 -9 5 -40 -32 -40 -48 0 -10 31 -1 74 19 34 16 36 17 36 5
0 -5 -15 -14 -32 -22 -18 -7 -41 -21 -51 -31 -22 -22 -37 -23 -37 -3 0 8 -5
15 -11 15 -5 0 -7 5 -4 10 3 6 -1 10 -9 10 -9 0 -16 -7 -16 -15 0 -8 -7 -15
-15 -15 -8 0 -15 -4 -15 -9 0 -5 7 -11 15 -15 9 -3 15 0 15 10 0 27 25 9 28
-20 2 -18 0 -26 -7 -21 -7 4 -11 -3 -11 -17 1 -20 2 -21 13 -7 7 8 20 18 30
22 9 3 17 13 17 22 0 9 9 15 22 15 21 0 21 -1 -8 -32 -16 -18 -32 -34 -36 -36
-5 -2 -8 -8 -8 -14 0 -6 8 -4 18 5 24 22 39 21 51 0 9 -17 11 -17 25 2 11 15
15 16 15 5 0 -8 -11 -23 -24 -33 -24 -18 -25 -17 -25 3 0 13 -5 20 -12 17 -7
-2 -13 -20 -13 -40 0 -19 -3 -39 -7 -43 -16 -15 -7 -25 15 -19 19 6 18 3 -8
-19 -20 -17 -26 -28 -19 -33 21 -15 26 -52 10 -75 -9 -12 -16 -31 -16 -41 0
-11 -11 -28 -25 -39 -14 -11 -25 -29 -25 -40 0 -17 4 -19 25 -14 14 4 25 2 25
-4 0 -5 -9 -10 -21 -10 -32 0 -20 -32 14 -36 24 -2 27 0 25 24 -1 15 2 34 7
41 5 9 2 18 -8 26 -14 10 -15 16 -4 38 16 36 25 34 19 -3 -4 -31 6 -38 26 -18
17 17 15 8 -8 -40 -26 -54 -25 -60 5 -32 34 32 33 5 0 -30 -21 -22 -26 -39
-29 -88 -2 -43 0 -59 8 -54 19 11 46 12 46 1 0 -6 -9 -22 -19 -35 -14 -17 -21
-21 -25 -12 -3 7 -4 -2 -1 -21 3 -18 5 -43 6 -55 0 -13 3 -16 6 -7 5 11 7 11
14 0 7 -11 9 -11 9 -1 0 7 5 10 10 7 15 -9 12 -25 -5 -25 -20 0 -19 -13 5 -60
11 -22 20 -48 20 -59 0 -25 20 -38 21 -14 1 17 2 17 6 1 5 -21 14 -23 31 -6
23 23 13 -27 -10 -52 l-22 -23 31 -26 c26 -21 30 -31 26 -55 -4 -20 -1 -31 11
-38 9 -5 16 -16 16 -24 0 -8 -4 -12 -10 -9 -5 3 -7 0 -4 -8 3 -9 13 -13 25
-10 21 6 27 -12 7 -21 -10 -3 -9 -8 2 -18 8 -7 16 -20 18 -28 6 -24 24 -41 38
-36 10 4 11 -1 3 -21 -8 -23 -8 -24 6 -13 13 11 15 9 15 -14 0 -16 5 -26 15
-26 8 0 15 -9 15 -20 0 -25 15 -26 25 -2 7 16 8 15 15 -3 5 -14 1 -25 -17 -38
-26 -21 -31 -39 -8 -31 8 4 15 1 15 -6 0 -10 3 -10 15 0 20 17 32 5 15 -15
-13 -15 -7 -70 11 -106 5 -11 14 -28 19 -39 14 -27 13 -30 -7 -30 -13 0 -14
-3 -5 -12 8 -8 9 -15 1 -25 -15 -17 6 -44 27 -36 8 3 14 0 14 -7 0 -6 -5 -8
-12 -4 -8 5 -9 2 -4 -12 4 -10 9 -28 10 -39 2 -11 6 -35 10 -53 l8 -33 60 5
c45 3 58 2 49 -7 -6 -6 -29 -12 -51 -13 -32 -1 -51 -11 -89 -42 -26 -22 -66
-45 -89 -51 -113 -31 -269 -114 -291 -155 -8 -13 -22 -27 -32 -29 -11 -3 -19
-10 -19 -17 0 -6 5 -8 12 -4 7 5 8 3 3 -7 -12 -19 -8 -62 10 -96 28 -53 15
-46 -25 13 -67 100 -72 107 -122 166 -26 31 -48 65 -48 75 0 31 -28 61 -75 79
-25 9 -45 23 -45 30 0 8 -4 14 -9 14 -13 0 -20 65 -28 240 -10 230 -9 257 14
475 32 295 43 466 46 695 2 215 -8 313 -53 484 -11 43 -20 106 -20 140 0 81
-16 174 -45 268 -13 42 -27 99 -31 127 l-7 51 61 0 c85 0 112 14 112 57 0 20
4 32 10 28 6 -3 10 -16 10 -29z m4001 -3 c24 -12 29 -18 17 -21 -10 -2 -18
-15 -20 -30 -2 -19 -10 -28 -25 -30 -13 -2 -23 -10 -23 -18 0 -20 16 -18 61 8
41 23 56 20 44 -9 -5 -10 -9 -25 -9 -33 -1 -8 -9 -14 -19 -13 -14 1 -17 -4
-14 -18 4 -14 0 -19 -16 -19 -11 0 -17 -3 -14 -7 9 -8 -23 -32 -44 -33 -19 0
-30 23 -54 113 l-18 68 28 29 c33 34 58 37 106 13z m-3521 -3 c0 -5 -5 -10
-11 -10 -5 0 -7 5 -4 10 3 6 8 10 11 10 2 0 4 -4 4 -10z m1450 -10 c0 -5 -2
-10 -4 -10 -3 0 -8 5 -11 10 -3 6 -1 10 4 10 6 0 11 -4 11 -10z m-1455 -68
c-11 -11 -27 17 -20 35 6 16 8 16 16 -6 5 -13 7 -26 4 -29z m33 30 c6 -18 -15
-14 -22 4 -4 10 -1 14 6 12 6 -2 14 -10 16 -16z m-3478 -22 c0 -5 -2 -10 -4
-10 -3 0 -8 5 -11 10 -3 6 -1 10 4 10 6 0 11 -4 11 -10z m3355 0 c3 -5 -1 -10
-10 -10 -9 0 -13 5 -10 10 3 6 8 10 10 10 2 0 7 -4 10 -10z m-65 -20 c0 -5 -4
-10 -10 -10 -5 0 -10 5 -10 10 0 6 5 10 10 10 6 0 10 -4 10 -10z m130 0 c0 -5
-4 -10 -10 -10 -5 0 -10 5 -10 10 0 6 5 10 10 10 6 0 10 -4 10 -10z m-50 -31
c0 -6 -4 -7 -10 -4 -5 3 -10 11 -10 16 0 6 5 7 10 4 6 -3 10 -11 10 -16z m-45
-46 c-3 -8 -5 -27 -6 -41 0 -24 -1 -25 -9 -7 -4 11 -5 32 -3 47 3 16 2 34 -3
41 -5 7 -1 4 9 -7 10 -10 15 -26 12 -33z m2333 8 c-13 -15 -28 -26 -34 -24 -6
2 -14 -3 -17 -11 -4 -9 -12 -16 -19 -16 -15 1 69 80 84 80 5 0 -1 -13 -14 -29z
m-2198 16 c0 -2 -10 -12 -21 -23 -22 -19 -22 -19 -10 4 10 18 31 31 31 19z
m-36 -62 c-4 -8 -10 -15 -15 -15 -4 0 -6 7 -3 15 4 8 10 15 15 15 4 0 6 -7 3
-15z m1484 -10 c-3 -3 -9 2 -12 12 -6 14 -5 15 5 6 7 -7 10 -15 7 -18z m-1428
-25 c0 -5 -5 -10 -11 -10 -5 0 -7 5 -4 10 3 6 8 10 11 10 2 0 4 -4 4 -10z
m-120 -4 c0 -2 -12 -12 -27 -21 l-28 -18 19 21 c17 20 36 29 36 18z m-29 -103
c-9 -15 -10 -12 -10 17 0 29 1 32 10 18 7 -12 7 -24 0 -35z m1574 -4 c11 -16
1 -19 -13 -3 -7 8 -8 14 -3 14 5 0 13 -5 16 -11z m-1598 -35 c3 -8 1 -20 -5
-26 -8 -8 -9 -4 -5 12 4 16 3 21 -5 16 -7 -4 -12 -2 -12 3 0 17 20 13 27 -5z
m1583 7 c0 -5 3 -16 6 -25 3 -9 2 -16 -4 -16 -5 0 -12 11 -14 25 -3 14 -1 25
3 25 5 0 9 -4 9 -9z m-1613 -56 c-5 -14 -47 -19 -47 -6 0 6 6 20 13 31 11 19
13 19 25 3 7 -9 11 -22 9 -28z m1690 23 c-3 -8 -6 -5 -6 6 -1 11 2 17 5 13 3
-3 4 -12 1 -19z m-1596 -15 c-12 -20 -14 -14 -5 12 4 9 9 14 11 11 3 -2 0 -13
-6 -23z m1454 -91 c-3 -3 -11 0 -18 7 -9 10 -8 11 6 5 10 -3 15 -9 12 -12z
m1475 -64 c34 -11 40 -17 40 -41 0 -16 5 -37 10 -48 8 -14 7 -19 -3 -19 -18 0
2 -147 22 -159 16 -10 6 -31 -15 -31 -20 0 -18 -40 4 -56 14 -10 15 -15 5 -25
-15 -15 -18 -43 -4 -35 5 3 14 -1 20 -8 8 -9 8 -16 2 -20 -6 -4 -7 -14 -4 -22
3 -9 0 -20 -7 -24 -17 -11 -5 -41 20 -47 50 -13 -9 -89 -71 -90 -50 -1 -126
-18 -142 -32 -9 -7 -63 -13 -141 -16 -70 -2 -132 -8 -139 -13 -18 -14 -67 -21
-67 -10 0 6 -7 7 -16 4 -9 -4 -22 -2 -28 3 -6 5 -54 14 -106 21 -52 6 -101 17
-110 24 -8 8 -24 16 -35 18 -15 2 -22 15 -28 52 -4 26 -4 53 1 59 4 7 7 59 6
117 -1 58 2 121 8 140 9 32 13 35 50 36 24 0 43 6 48 15 6 10 29 14 94 14 47
0 86 3 86 7 0 4 16 4 35 1 24 -4 35 -2 35 7 0 10 3 10 15 0 8 -6 19 -9 24 -6
5 4 14 -2 20 -11 10 -17 10 -17 11 0 0 9 5 17 10 17 6 0 10 -4 10 -10 0 -16
22 -12 35 7 8 10 28 16 58 17 30 1 47 5 47 14 0 6 5 12 10 12 6 0 21 10 33 23
13 12 36 27 53 32 20 8 28 17 26 29 -2 11 2 23 10 27 10 7 10 9 0 9 -7 0 -17
-10 -22 -22 -5 -13 -9 -18 -9 -11 -2 22 11 43 26 43 8 0 11 5 8 10 -8 14 17
13 65 -2z m-2970 -12 c0 -3 -4 -8 -10 -11 -5 -3 -10 -1 -10 4 0 6 5 11 10 11
6 0 10 -2 10 -4z m1690 -137 c0 -14 -17 -10 -23 5 -4 10 -1 13 9 9 7 -3 14 -9
14 -14z m-4828 -101 c-7 -7 -12 -8 -12 -2 0 6 3 14 7 17 3 4 9 5 12 2 2 -3 -1
-11 -7 -17z m-42 2 c0 -5 -4 -10 -10 -10 -5 0 -10 5 -10 10 0 6 5 10 10 10 6
0 10 -4 10 -10z m3107 -37 c-9 -9 -19 -14 -23 -11 -10 10 6 28 24 28 15 0 15
-1 -1 -17z m-3100 -15 c-3 -8 -6 -5 -6 6 -1 11 2 17 5 13 3 -3 4 -12 1 -19z
m3103 -22 c0 -3 -4 -8 -10 -11 -5 -3 -10 -1 -10 4 0 6 5 11 10 11 6 0 10 -2
10 -4z m1510 -126 c0 -5 -2 -10 -4 -10 -3 0 -8 5 -11 10 -3 6 -1 10 4 10 6 0
11 -4 11 -10z m-1580 -30 c0 -5 -5 -10 -11 -10 -5 0 -7 5 -4 10 3 6 8 10 11
10 2 0 4 -4 4 -10z m1674 -16 c5 -14 4 -15 -9 -4 -17 14 -19 20 -6 20 5 0 12
-7 15 -16z m-1598 -83 c8 7 14 7 14 1 0 -5 -11 -17 -25 -26 -26 -17 -30 -11
-18 20 4 12 8 14 11 6 3 -10 7 -10 18 -1z m54 -111 c0 -5 -7 -10 -16 -10 -8 0
-12 5 -9 10 3 6 10 10 16 10 5 0 9 -4 9 -10z m97 -402 c-3 -7 -5 -2 -5 12 0
14 2 19 5 13 2 -7 2 -19 0 -25z m-3237 -8 c0 -5 -2 -10 -4 -10 -3 0 -8 5 -11
10 -3 6 -1 10 4 10 6 0 11 -4 11 -10z m3215 -39 c3 -5 1 -12 -5 -16 -5 -3 -10
1 -10 9 0 18 6 21 15 7z m-2766 -688 c-27 -34 -111 -115 -115 -111 -5 6 108
127 120 127 5 1 2 -7 -5 -16z m-1499 -33 c0 -5 -2 -10 -4 -10 -3 0 -8 5 -11
10 -3 6 -1 10 4 10 6 0 11 -4 11 -10z m1353 -122 c-15 -17 -40 -44 -55 -59
-16 -15 -28 -30 -28 -34 0 -17 -31 -36 -46 -27 -14 8 -9 17 34 61 27 28 54 51
59 51 6 0 18 9 28 20 10 11 22 20 27 20 6 0 -3 -14 -19 -32z m2839 -160 c-7
-7 -12 -8 -12 -2 0 14 12 26 19 19 2 -3 -1 -11 -7 -17z m-2242 -62 c0 -3 -4
-8 -10 -11 -5 -3 -10 -1 -10 4 0 6 5 11 10 11 6 0 10 -2 10 -4z m2167 -38 c-3
-8 -6 -5 -6 6 -1 11 2 17 5 13 3 -3 4 -12 1 -19z m3 -52 c0 -3 -4 -8 -10 -11
-5 -3 -10 -1 -10 4 0 6 5 11 10 11 6 0 10 -2 10 -4z"/>
<path d="M6483 6110 c-13 -5 -23 -13 -23 -18 0 -4 -8 -17 -18 -28 -10 -11 -22
-33 -26 -49 -6 -29 -6 -29 29 12 57 67 138 80 198 33 40 -31 45 -4 6 31 -28
25 -40 29 -88 28 -31 0 -66 -4 -78 -9z"/>
<path d="M7035 6008 c-38 -23 -44 -33 -54 -78 -15 -68 -14 -85 4 -100 8 -7 15
-18 15 -25 0 -20 38 -63 73 -80 97 -50 160 -54 210 -15 26 20 26 20 32 0 4
-14 15 -20 35 -20 25 0 31 5 41 39 8 26 8 44 1 56 -6 12 -6 30 0 49 7 25 4 41
-14 78 -20 42 -27 48 -55 48 -18 0 -33 5 -33 10 0 6 -13 10 -30 10 -19 0 -33
7 -40 19 -24 45 -119 50 -185 9z m176 -108 c36 -20 68 -120 48 -151 -6 -10 -9
-3 -9 23 0 27 -8 47 -29 70 -28 31 -33 33 -96 33 -65 0 -66 0 -45 17 25 20 99
24 131 8z m-104 -90 c-6 -11 -17 -20 -24 -20 -17 0 -16 10 3 31 21 24 37 14
21 -11z m203 0 c0 -11 -2 -20 -4 -20 -2 0 -6 9 -9 20 -3 11 -1 20 4 20 5 0 9
-9 9 -20z m50 -10 c0 -5 -7 -10 -15 -10 -8 0 -15 5 -15 10 0 6 7 10 15 10 8 0
15 -4 15 -10z"/>
<path d="M6480 6010 c-12 -12 -20 -33 -20 -52 0 -18 -3 -43 -6 -55 -8 -30 27
-43 112 -45 65 -1 109 17 121 48 9 25 -24 82 -59 104 -45 27 -121 27 -148 0z
m70 -19 c0 -13 -29 -35 -37 -28 -7 8 15 37 28 37 5 0 9 -4 9 -9z"/>
<path d="M1821 5985 c-42 -30 -71 -77 -77 -122 -2 -19 -7 -39 -10 -44 -11 -19
31 -69 75 -88 83 -35 107 -36 137 -6 22 22 25 32 20 63 -8 51 -36 84 -83 101
-37 13 -44 13 -67 -2 -35 -23 -65 -69 -48 -75 6 -2 12 -11 12 -20 0 -15 -1
-15 -16 0 -48 47 34 143 122 143 34 0 49 -6 73 -29 17 -16 34 -27 37 -23 12
11 -17 65 -52 96 -41 38 -78 40 -123 6z m49 -167 c0 -22 -17 -41 -29 -34 -8 5
-8 13 -1 27 12 21 30 26 30 7z"/>
<path d="M1992 5820 c0 -19 2 -27 5 -17 2 9 2 25 0 35 -3 9 -5 1 -5 -18z"/>
<path d="M1680 5474 c0 -8 5 -12 10 -9 6 4 8 11 5 16 -9 14 -15 11 -15 -7z"/>
<path d="M1731 5461 c-6 -10 -8 -20 -6 -23 7 -6 26 -99 26 -122 0 -11 7 -34
15 -52 19 -40 110 -88 162 -86 19 1 43 -3 53 -9 13 -6 19 -6 19 1 0 5 7 10 15
10 21 0 19 20 -2 21 -21 0 84 37 109 38 10 1 20 12 24 26 3 14 10 22 15 19 5
-3 6 1 3 9 -3 8 2 17 11 21 12 4 15 14 11 37 -2 17 -7 33 -10 37 -8 8 -46 -29
-46 -44 0 -8 -12 -21 -26 -30 -24 -16 -26 -16 -52 5 -15 12 -46 36 -69 53 -24
18 -43 37 -43 44 0 14 -28 27 -41 18 -5 -3 -38 6 -73 20 -77 31 -82 31 -95 7z"/>
<path d="M1762 5164 c10 -10 20 -15 24 -12 3 4 -5 12 -18 18 -22 12 -22 12 -6
-6z"/>
<path d="M4070 5705 c-16 -19 -1 -19 24 0 16 12 17 15 4 15 -8 0 -21 -7 -28
-15z"/>
<path d="M4685 5489 c5 -13 12 -37 16 -54 4 -16 15 -55 24 -85 9 -30 20 -71
24 -91 4 -19 11 -42 16 -49 5 -7 12 -30 16 -49 30 -147 31 -154 17 -163 -9 -7
-8 -8 6 -4 18 6 19 2 13 -67 -3 -40 -12 -90 -21 -111 -9 -21 -16 -57 -16 -81
0 -23 -3 -45 -7 -49 -11 -11 -31 -126 -21 -120 20 12 76 144 87 204 13 67 9
165 -9 235 -5 22 -10 56 -10 76 0 20 -3 39 -7 42 -3 4 -8 30 -9 59 -1 28 -7
54 -12 57 -5 3 -12 25 -15 49 -3 24 -16 67 -30 95 -14 29 -31 67 -37 85 -15
38 -36 57 -25 21z"/>
<path d="M4586 5418 c-3 -7 -7 -26 -11 -42 -5 -26 -4 -28 9 -17 11 9 14 22 9
39 -4 17 -2 23 6 18 6 -4 11 -2 11 3 0 15 -20 14 -24 -1z"/>
<path d="M4550 5330 c0 -5 5 -10 10 -10 6 0 10 5 10 10 0 6 -4 10 -10 10 -5 0
-10 -4 -10 -10z"/>
<path d="M4594 5285 c-7 -17 -31 -20 -36 -5 -3 11 -90 -18 -96 -32 -5 -12
-122 -10 -122 2 0 20 -37 30 -70 19 -26 -10 -31 -16 -27 -35 3 -18 0 -24 -15
-24 -27 0 -45 -44 -27 -66 11 -13 11 -18 2 -21 -15 -5 -17 -29 -3 -38 5 -3 19
-1 30 5 16 8 20 8 20 -4 0 -8 4 -16 10 -18 12 -4 2 -46 -14 -51 -6 -2 -3 -3 8
-1 10 1 28 -6 39 -17 12 -11 28 -17 39 -13 10 3 18 0 18 -6 0 -6 4 -9 9 -5 6
3 30 1 54 -6 69 -17 148 3 192 48 31 32 39 35 75 30 22 -3 40 -1 40 4 0 5 -4
9 -8 9 -7 0 -20 31 -37 88 -7 23 -7 24 20 6 42 -27 51 -6 24 55 -19 40 -29 51
-47 51 -15 0 -26 7 -29 20 -6 23 -41 27 -49 5z m-334 -116 c0 -11 -27 -12 -34
0 -3 4 -3 11 0 14 8 8 34 -3 34 -14z m301 -18 c40 -42 37 -52 -9 -30 -36 18
-41 18 -88 3 -59 -20 -92 -47 -97 -83 -3 -17 -5 -11 -6 16 -1 33 3 45 19 53
11 6 20 15 20 21 0 6 -4 7 -10 4 -6 -4 -7 1 -3 11 9 24 63 45 106 40 26 -3 48
-14 68 -35z m-113 -83 c-5 -32 -28 -35 -28 -4 0 17 5 26 16 26 10 0 14 -7 12
-22z"/>
<path d="M4427 5164 c-26 -14 -29 -34 -6 -34 6 0 8 4 5 9 -4 5 7 12 24 16 16
4 32 11 35 16 9 14 -27 10 -58 -7z"/>
<path d="M4020 5105 c-8 -9 -17 -12 -24 -7 -16 12 -144 13 -188 1 -39 -10 -88
-48 -88 -68 0 -6 -4 -11 -10 -11 -5 0 -10 -11 -10 -25 0 -14 -4 -25 -8 -25 -4
0 -7 -12 -6 -27 1 -16 2 -49 3 -74 1 -56 17 -78 59 -84 18 -2 40 -9 48 -16 10
-8 14 -8 14 0 0 6 17 11 39 11 49 0 136 44 167 86 l24 31 -21 27 c-34 43 -73
58 -117 46 -40 -11 -102 -45 -103 -57 -5 -49 -4 -72 4 -96 14 -42 2 -43 -22
-2 -26 45 -27 100 -1 142 26 43 56 61 110 67 25 3 37 3 28 0 -29 -9 -21 -24
13 -24 23 0 41 -11 75 -45 41 -42 64 -50 64 -24 0 6 -4 7 -10 4 -5 -3 -10 1
-10 9 0 9 5 16 10 16 6 0 10 6 10 14 0 19 -29 48 -41 40 -5 -3 -14 7 -19 22
-11 28 -10 30 33 55 10 5 15 14 12 20 -9 13 -21 11 -35 -6z m-132 -187 c-4
-27 -28 -36 -28 -10 0 20 8 32 22 32 5 0 8 -10 6 -22z"/>
<path d="M4734 5084 c4 -39 19 -63 30 -45 4 6 1 11 -6 11 -9 0 -10 2 -1 8 15
9 5 62 -12 62 -9 0 -12 -12 -11 -36z"/>
<path d="M4225 5050 c-3 -5 -1 -10 4 -10 6 0 11 5 11 10 0 6 -2 10 -4 10 -3 0
-8 -4 -11 -10z"/>
<path d="M4148 4993 c6 -2 18 -2 25 0 6 3 1 5 -13 5 -14 0 -19 -2 -12 -5z"/>
<path d="M4188 4977 c-16 -6 -28 -14 -28 -18 0 -8 75 13 86 24 11 10 -26 7
-58 -6z"/>
<path d="M4275 4960 c3 -5 8 -10 11 -10 2 0 4 5 4 10 0 6 -5 10 -11 10 -5 0
-7 -4 -4 -10z"/>
<path d="M4738 4956 c-20 -14 -24 -36 -8 -36 6 0 10 -5 10 -11 0 -6 7 -17 16
-26 14 -14 16 -14 21 5 3 11 11 23 19 26 18 7 18 21 -2 40 -19 19 -33 20 -56
2z"/>
<path d="M4370 4861 c0 -11 -12 -29 -26 -40 -21 -17 -23 -21 -9 -21 14 0 15
-3 5 -15 -7 -9 -15 -13 -18 -10 -3 3 -11 0 -18 -6 -15 -13 -34 -4 -34 16 0 27
-42 86 -59 83 -17 -4 -18 -17 -8 -89 6 -42 4 -49 -26 -80 -56 -59 -91 -84
-113 -81 -11 2 -27 -4 -34 -13 -7 -8 -19 -15 -26 -15 -8 0 -14 -6 -14 -14 0
-8 -12 -24 -27 -35 -32 -26 -23 -39 18 -24 30 12 30 12 24 -18 -8 -35 -6 -35
45 -9 22 11 40 16 40 10 0 -5 6 -10 14 -10 7 0 25 -9 40 -21 18 -14 46 -22 88
-25 34 -3 65 -7 70 -10 9 -6 65 21 92 45 11 9 16 10 12 4 -4 -7 -6 -13 -4 -13
8 0 98 128 98 139 0 6 4 11 8 11 21 0 19 -15 -4 -50 -17 -25 -24 -46 -19 -59
4 -14 -2 -27 -22 -45 -29 -27 -46 -28 -19 -1 9 9 16 19 16 21 0 10 -41 -18
-53 -36 -6 -11 -19 -20 -27 -20 -8 0 -33 -7 -55 -15 -71 -25 -117 -19 -218 31
-34 17 -47 18 -47 4 0 -17 38 -44 88 -62 44 -15 45 -17 16 -17 -17 -1 -45 4
-63 10 -17 6 -39 8 -49 4 -15 -6 -14 -8 6 -19 20 -11 21 -14 9 -25 -8 -6 -19
-10 -25 -9 -5 2 -10 -1 -10 -5 -1 -5 -9 -15 -19 -23 -16 -13 -4 -15 107 -10
111 5 195 15 240 29 43 14 71 17 65 7 -4 -6 21 3 56 20 46 24 59 34 48 41 -10
6 -8 9 11 9 16 0 43 17 72 45 27 25 52 45 58 45 5 0 10 10 10 21 0 12 9 36 19
53 11 17 22 52 24 78 3 25 10 55 16 66 6 11 10 35 10 53 0 19 1 43 3 54 3 19
-2 20 -71 19 -49 -1 -77 -6 -83 -15 -7 -11 -11 -11 -15 -1 -9 24 -25 12 -19
-15 3 -16 2 -35 -4 -43 -7 -12 -11 -9 -16 16 -3 17 -16 44 -29 60 -20 25 -25
27 -39 15 -9 -7 -16 -20 -16 -27 0 -8 -4 -14 -10 -14 -5 0 -10 9 -10 19 0 20
-35 51 -57 51 -7 0 -13 -9 -13 -19z m305 -92 c4 -12 2 -26 -4 -32 -8 -8 -11
-7 -11 5 0 9 -3 23 -6 32 -3 9 -1 16 4 16 6 0 14 -9 17 -21z m-38 -45 c-3 -3
-12 -4 -19 -1 -8 3 -5 6 6 6 11 1 17 -2 13 -5z m-32 -25 c14 -22 12 -65 -5
-105 -25 -56 -38 -62 -38 -16 0 20 -3 50 -7 65 -11 39 32 87 50 56z"/>
<path d="M8393 4495 c-35 -15 -55 -62 -46 -109 7 -34 29 -45 106 -53 52 -4 66
-2 86 14 49 40 20 134 -48 153 -46 13 -59 12 -98 -5z m47 -42 c0 -14 -19 -38
-25 -32 -8 8 5 39 16 39 5 0 9 -3 9 -7z"/>
<path d="M8908 4432 c-58 -35 -70 -111 -28 -165 26 -33 125 -62 185 -53 37 6
50 13 66 39 24 41 24 74 -1 112 -24 36 -26 26 -5 -15 14 -28 14 -33 -5 -70
-23 -45 -35 -53 -20 -14 16 41 12 62 -19 96 -25 28 -34 32 -84 32 -45 1 -60
-3 -81 -23 -39 -36 -34 -1 5 44 34 38 29 44 -13 17z m62 -80 c0 -5 -7 -17 -15
-28 -15 -19 -20 -8 -9 20 6 17 24 22 24 8z"/>
<path d="M8460 4060 c-14 -26 16 -53 100 -94 57 -27 75 -31 150 -31 87 0 150
17 150 40 0 22 -34 42 -83 48 -26 4 -64 15 -85 25 -24 13 -69 21 -129 25 -84
5 -94 4 -103 -13z"/>
<path d="M1848 3923 c-10 -2 -18 -8 -18 -13 0 -4 9 -6 20 -3 11 3 20 9 20 14
0 5 -1 8 -2 8 -2 -1 -11 -3 -20 -6z"/>
<path d="M1665 3880 c-3 -5 -2 -10 4 -10 5 0 13 5 16 10 3 6 2 10 -4 10 -5 0
-13 -4 -16 -10z"/>
<path d="M1757 3843 c-4 -3 -7 -11 -7 -17 0 -6 5 -5 12 2 6 6 9 14 7 17 -3 3
-9 2 -12 -2z"/>
<path d="M1775 3720 c-3 -5 1 -10 10 -10 9 0 13 5 10 10 -3 6 -8 10 -10 10 -2
0 -7 -4 -10 -10z"/>
<path d="M1705 3450 c-3 -5 -1 -10 4 -10 6 0 11 5 11 10 0 6 -2 10 -4 10 -3 0
-8 -4 -11 -10z"/>
<path d="M1781 3428 c-5 -14 -5 -24 1 -27 11 -4 38 31 32 41 -9 15 -25 8 -33
-14z"/>
<path d="M1792 3338 c-14 -14 -16 -28 -3 -28 9 0 24 30 18 36 -2 2 -9 -2 -15
-8z"/>
<path d="M1753 3293 c-13 -5 -19 -33 -7 -33 7 0 34 27 34 34 0 7 -10 7 -27 -1z"/>
<path d="M1690 3235 c0 -8 5 -15 10 -15 6 0 10 7 10 15 0 8 -4 15 -10 15 -5 0
-10 -7 -10 -15z"/>
<path d="M1585 3231 c-3 -5 -1 -12 5 -16 5 -3 10 1 10 9 0 18 -6 21 -15 7z"/>
<path d="M3759 3273 l-24 -25 30 13 c41 18 49 25 32 32 -8 3 -25 -5 -38 -20z"/>
<path d="M4525 3281 c-3 -5 -1 -12 5 -16 5 -3 10 1 10 9 0 18 -6 21 -15 7z"/>
<path d="M4660 3090 c0 -5 5 -10 10 -10 6 0 10 5 10 10 0 6 -4 10 -10 10 -5 0
-10 -4 -10 -10z"/>
<path d="M4645 2950 c3 -5 8 -10 11 -10 2 0 4 5 4 10 0 6 -5 10 -11 10 -5 0
-7 -4 -4 -10z"/>
<path d="M4211 2684 c0 -11 3 -14 6 -6 3 7 2 16 -1 19 -3 4 -6 -2 -5 -13z"/>
<path d="M5652 3380 c-13 -21 -6 -26 15 -12 7 4 9 13 5 19 -6 9 -11 6 -20 -7z"/>
<path d="M5650 3280 c0 -13 11 -13 30 0 12 8 11 10 -7 10 -13 0 -23 -4 -23
-10z"/>
<path d="M5645 3200 c-19 -8 -19 -9 3 -9 12 -1 22 4 22 9 0 6 -1 10 -2 9 -2 0
-12 -4 -23 -9z"/>
<path d="M5720 3195 c0 -8 5 -15 10 -15 6 0 10 7 10 15 0 8 -4 15 -10 15 -5 0
-10 -7 -10 -15z"/>
<path d="M5686 3069 c-11 -11 -16 -22 -13 -26 4 -3 7 -1 7 6 0 8 8 11 20 8 21
-5 25 0 12 19 -5 8 -13 5 -26 -7z"/>
<path d="M5611 2934 c-33 -41 -25 -59 9 -21 17 19 30 37 30 41 0 14 -20 4 -39
-20z"/>
<path d="M5690 2692 c0 -10 -5 -23 -12 -30 -9 -9 -8 -12 4 -12 16 0 28 20 28
46 0 8 -4 14 -10 14 -5 0 -10 -8 -10 -18z"/>
<path d="M5660 2626 c0 -8 5 -18 10 -21 6 -3 10 1 10 9 0 8 -4 18 -10 21 -5 3
-10 -1 -10 -9z"/>
<path d="M5675 2489 c-4 -6 -5 -12 -2 -15 2 -3 7 2 10 11 7 17 1 20 -8 4z"/>
<path d="M6097 1241 c-3 -12 -1 -21 3 -21 15 0 23 21 12 32 -6 6 -11 2 -15
-11z"/>
<path d="M9410 3310 c0 -5 5 -10 10 -10 6 0 10 5 10 10 0 6 -4 10 -10 10 -5 0
-10 -4 -10 -10z"/>
<path d="M8695 2540 c-3 -5 -1 -10 4 -10 6 0 11 5 11 10 0 6 -2 10 -4 10 -3 0
-8 -4 -11 -10z"/>
<path d="M8589 2523 c-13 -16 -12 -17 4 -4 16 13 21 21 13 21 -2 0 -10 -8 -17
-17z"/>
<path d="M8768 2453 c7 -3 16 -2 19 1 4 3 -2 6 -13 5 -11 0 -14 -3 -6 -6z"/>
<path d="M8871 2341 c-9 -17 -10 -26 -2 -34 18 -18 36 8 24 35 l-10 23 -12
-24z"/>
<path d="M5321 6688 c-1 -16 4 -28 9 -28 12 0 12 8 0 35 -8 18 -9 17 -9 -7z"/>
<path d="M5447 6293 c-4 -3 -7 -11 -7 -17 0 -6 5 -5 12 2 6 6 9 14 7 17 -3 3
-9 2 -12 -2z"/>
<path d="M7647 5926 c-5 -15 -6 -31 -3 -34 8 -8 18 25 14 45 -3 13 -6 10 -11
-11z"/>
<path d="M5445 5725 c7 -33 12 -41 21 -33 3 4 -2 19 -11 35 l-16 28 6 -30z"/>
<path d="M5465 5581 c3 -11 3 -26 -1 -33 -12 -19 -14 -58 -3 -58 5 0 9 -10 9
-22 0 -17 3 -19 11 -11 9 9 9 20 -1 43 -11 25 -11 33 -1 40 16 9 10 52 -8 58
-9 3 -11 -2 -6 -17z"/>
<path d="M7503 5559 c-7 -7 -13 -22 -13 -33 0 -19 1 -19 16 -4 9 8 14 23 12
32 -2 14 -5 15 -15 5z"/>
<path d="M10296 5425 c-9 -14 -14 -29 -11 -34 3 -5 10 -87 15 -182 12 -189 18
-209 72 -209 20 0 28 5 28 18 0 34 68 158 111 201 99 98 186 131 350 131 l109
0 0 -754 c0 -604 -3 -756 -13 -764 -7 -6 -43 -14 -81 -18 -56 -6 -70 -11 -83
-31 -15 -22 -14 -25 7 -48 l23 -25 342 0 c319 0 343 1 358 18 39 43 8 77 -81
87 -34 4 -69 14 -77 22 -13 12 -15 118 -15 764 l0 749 108 0 c176 0 265 -33
360 -134 52 -55 95 -128 107 -183 5 -28 11 -33 34 -33 49 0 59 23 65 160 9
174 15 213 29 202 7 -5 41 -12 76 -14 47 -3 67 -9 77 -23 22 -29 21 -1467 -1
-1488 -8 -8 -43 -18 -77 -22 -90 -10 -124 -48 -80 -88 17 -16 82 -17 729 -17
l710 0 23 24 c15 17 20 31 15 43 -4 10 -10 109 -14 220 -6 178 -10 205 -26
223 -12 13 -28 20 -43 18 -21 -3 -28 -14 -48 -72 -54 -160 -196 -304 -339
-341 -44 -11 -111 -15 -257 -15 l-198 0 0 365 0 365 260 0 c205 0 268 -3 295
-15 39 -16 55 -46 55 -104 0 -61 48 -91 83 -53 15 16 17 47 17 225 l0 207 -25
16 c-25 16 -27 16 -50 -6 -17 -16 -25 -34 -25 -56 0 -42 -16 -84 -38 -100 -13
-10 -83 -13 -294 -14 l-278 0 0 355 0 355 208 0 c216 0 269 -7 348 -48 93 -48
178 -152 214 -264 10 -32 16 -38 39 -38 50 0 61 25 61 136 0 54 5 139 11 187
17 141 98 127 -721 127 -528 0 -699 -3 -708 -12 -9 -9 -15 -9 -24 0 -9 9 -215
12 -864 12 l-852 0 -16 -25z"/>
<path d="M14377 5438 c-3 -7 -131 -339 -285 -739 -328 -849 -307 -797 -335
-828 -27 -29 -93 -60 -128 -61 -28 0 -59 -27 -59 -52 0 -8 8 -22 18 -31 27
-24 406 -25 440 -1 47 33 17 77 -61 88 -59 9 -89 35 -79 68 4 13 34 95 67 181
l60 157 307 0 306 0 77 -180 c42 -99 73 -185 69 -191 -10 -16 -69 -39 -102
-39 -28 0 -62 -26 -62 -47 0 -5 10 -19 23 -31 23 -22 28 -22 373 -22 l351 0
23 25 c36 39 18 62 -68 85 -53 14 -103 63 -141 138 -15 31 -162 380 -327 775
l-298 717 -82 0 c-56 0 -83 -4 -87 -12z m72 -788 c72 -173 129 -316 127 -317
-2 -2 -118 -2 -259 -1 l-255 3 114 295 c128 332 133 344 139 338 3 -2 63 -146
134 -318z"/>
<path d="M15477 5432 c-40 -44 -8 -78 80 -84 34 -2 68 -10 77 -17 14 -12 16
-90 16 -747 0 -631 -2 -735 -15 -747 -8 -8 -43 -18 -77 -22 -91 -10 -128 -53
-76 -89 33 -23 403 -23 436 0 52 36 15 79 -76 89 -34 4 -69 14 -77 22 -13 12
-15 99 -14 611 0 385 4 590 10 577 5 -11 125 -310 267 -665 l258 -645 40 0 39
0 252 625 c139 344 258 641 266 660 13 31 15 -28 16 -555 0 -337 -3 -596 -8
-604 -6 -9 -33 -16 -73 -19 -90 -6 -133 -47 -90 -85 17 -15 57 -17 364 -17
321 0 346 1 361 18 22 25 21 34 -6 60 -18 17 -36 22 -79 22 -96 0 -88 -69 -88
764 0 657 2 735 16 747 9 7 43 15 77 17 88 6 124 45 79 86 -17 14 -46 16 -261
14 l-243 -3 -233 -584 c-129 -321 -236 -585 -238 -588 -3 -2 -110 261 -240
584 l-235 588 -254 3 c-237 2 -256 1 -271 -16z"/>
<path d="M18724 4963 c-153 -269 -319 -562 -371 -651 -51 -90 -93 -172 -93
-181 0 -10 10 -27 23 -39 23 -22 27 -22 415 -22 l392 0 0 -103 c0 -133 -6
-143 -98 -152 -37 -4 -73 -12 -79 -17 -19 -15 -16 -52 5 -71 17 -15 56 -17
359 -17 317 0 341 1 356 18 39 43 8 76 -78 87 -33 4 -66 12 -72 17 -9 7 -13
45 -13 124 l0 114 48 0 c55 0 92 21 92 54 0 35 -20 46 -82 46 l-58 0 -2 482
-3 482 -31 12 -32 13 -156 -187 -156 -187 0 -303 c0 -234 -3 -304 -13 -307 -7
-3 -153 -4 -326 -3 l-314 3 511 609 511 609 -15 29 -15 28 -214 0 -214 0 -277
-487z"/>
<path d="M5521 5394 c0 -11 3 -14 6 -6 3 7 2 16 -1 19 -3 4 -6 -2 -5 -13z"/>
<path d="M5570 5352 c0 -10 -5 -23 -12 -30 -14 -14 -7 -24 9 -14 16 10 28 62
14 62 -6 0 -11 -8 -11 -18z"/>
<path d="M5696 5171 c-4 -7 -5 -15 -2 -18 9 -9 19 4 14 18 -4 11 -6 11 -12 0z"/>
<path d="M5762 5138 c-19 -19 -14 -30 8 -18 11 6 20 15 20 20 0 14 -14 12 -28
-2z"/>
<path d="M5786 5065 c-3 -8 -13 -15 -22 -15 -10 0 -15 -2 -12 -5 10 -11 58 7
58 21 0 19 -16 18 -24 -1z"/>
<path d="M3105 5050 c-11 -4 -25 -5 -30 -3 -6 2 -21 -8 -33 -22 -12 -14 -27
-25 -34 -25 -6 0 -19 -6 -27 -13 -9 -8 -45 -24 -81 -37 -112 -40 -159 -68
-160 -92 0 -11 60 -10 122 3 89 17 211 94 249 155 24 39 23 45 -6 34z"/>
<path d="M6020 5040 c0 -5 5 -10 10 -10 6 0 10 5 10 10 0 6 -4 10 -10 10 -5 0
-10 -4 -10 -10z"/>
<path d="M2540 5020 c0 -5 7 -10 16 -10 8 0 12 5 9 10 -3 6 -10 10 -16 10 -5
0 -9 -4 -9 -10z"/>
<path d="M3115 4990 c-16 -17 -16 -20 -3 -15 9 4 19 13 22 21 7 19 2 18 -19
-6z"/>
<path d="M6010 4926 c0 -9 5 -16 10 -16 6 0 10 4 10 9 0 6 -4 13 -10 16 -5 3
-10 -1 -10 -9z"/>
<path d="M5896 4921 c-4 -7 -5 -15 -2 -18 9 -9 19 4 14 18 -4 11 -6 11 -12 0z"/>
<path d="M5847 4883 c-4 -3 -7 -13 -7 -22 1 -13 3 -13 11 2 11 19 8 33 -4 20z"/>
<path d="M5990 4840 c0 -5 7 -10 15 -10 8 0 15 5 15 10 0 6 -7 10 -15 10 -8 0
-15 -4 -15 -10z"/>
<path d="M2635 4829 c4 -5 27 -9 52 -9 58 0 52 9 -11 14 -27 3 -44 1 -41 -5z"/>
<path d="M2745 4820 c-3 -5 -1 -10 4 -10 6 0 11 5 11 10 0 6 -2 10 -4 10 -3 0
-8 -4 -11 -10z"/>
<path d="M5880 4799 c0 -11 33 -20 39 -11 3 5 13 11 21 14 8 3 -2 5 -22 4 -21
0 -38 -4 -38 -7z"/>
<path d="M6025 4751 c4 -12 2 -21 -4 -21 -6 0 -11 5 -11 10 0 6 -7 10 -15 10
-8 0 -15 -4 -15 -10 0 -5 -7 -10 -15 -10 -24 0 -17 -20 18 -51 l32 -29 -26 0
c-15 0 -33 -7 -40 -17 -13 -15 -11 -16 16 -8 17 4 41 7 54 6 30 -1 43 7 34 22
-11 17 -12 66 -2 73 14 8 11 18 -12 32 -19 12 -20 11 -14 -7z m-25 -47 c0 -17
-22 -14 -28 4 -2 7 3 12 12 12 9 0 16 -7 16 -16z"/>
<path d="M5882 4730 c-8 -13 -8 -20 -2 -20 6 0 13 7 17 15 9 24 -1 27 -15 5z"/>
<path d="M5877 4683 c-4 -3 -7 -11 -7 -17 0 -6 5 -5 12 2 6 6 9 14 7 17 -3 3
-9 2 -12 -2z"/>
<path d="M5868 4643 c-22 -6 -24 -23 -2 -23 8 0 12 -4 9 -10 -4 -6 1 -7 11 -3
10 4 13 8 7 10 -7 3 -9 11 -6 19 3 8 4 13 2 13 -2 -1 -12 -3 -21 -6z"/>
<path d="M7750 4541 c0 -5 7 -12 16 -15 14 -5 15 -4 4 9 -14 17 -20 19 -20 6z"/>
<path d="M6418 4493 c7 -3 16 -2 19 1 4 3 -2 6 -13 5 -11 0 -14 -3 -6 -6z"/>
<path d="M6550 4450 c0 -5 7 -7 15 -4 8 4 15 8 15 10 0 2 -7 4 -15 4 -8 0 -15
-4 -15 -10z"/>
<path d="M9620 4425 c-13 -14 -22 -27 -19 -29 2 -2 14 10 27 25 29 36 24 38
-8 4z"/>
<path d="M6765 4430 c-4 -6 3 -10 14 -10 25 0 27 6 6 13 -8 4 -17 2 -20 -3z"/>
<path d="M9599 4339 c-12 -18 -24 -42 -25 -53 -7 -59 -15 -90 -25 -102 -15
-19 -1 -18 17 1 21 20 44 79 44 110 0 15 5 35 11 47 18 33 3 31 -22 -3z"/>
<path d="M6560 4350 c0 -5 7 -10 15 -10 8 0 15 5 15 10 0 6 -7 10 -15 10 -8 0
-15 -4 -15 -10z"/>
<path d="M6720 4279 c0 -5 5 -7 10 -4 6 3 10 8 10 11 0 2 -4 4 -10 4 -5 0 -10
-5 -10 -11z"/>
<path d="M6673 4243 c-14 -5 -18 -23 -5 -23 5 0 17 7 28 15 14 11 15 14 4 14
-8 0 -21 -3 -27 -6z"/>
<path d="M6585 3890 c-3 -5 1 -10 10 -10 9 0 13 5 10 10 -3 6 -8 10 -10 10 -2
0 -7 -4 -10 -10z"/>
<path d="M6740 3735 c-10 -12 -10 -15 4 -15 9 0 16 7 16 15 0 8 -2 15 -4 15
-2 0 -9 -7 -16 -15z"/>
<path d="M15650 3300 c-14 -4 -43 -9 -65 -9 -79 -2 -118 -27 -52 -33 l32 -3 3
-113 3 -112 -33 20 c-36 22 -136 28 -180 11 -29 -11 -75 -57 -96 -96 -21 -41
-28 -191 -12 -252 18 -61 72 -117 130 -133 53 -14 129 -7 164 15 22 15 26 15
57 -4 39 -24 82 -27 119 -8 24 12 70 80 70 105 0 20 -38 14 -45 -8 -3 -11 -13
-20 -21 -20 -12 0 -14 50 -14 325 0 358 4 336 -60 315z m-123 -292 c33 -37 43
-85 43 -209 0 -118 0 -118 -31 -154 -36 -40 -56 -43 -92 -15 -36 29 -59 106
-59 200 1 150 77 246 139 178z"/>
<path d="M11858 3259 c-32 -4 -71 -15 -88 -24 -51 -27 -110 -86 -138 -139 -25
-47 -27 -60 -27 -176 0 -111 3 -130 23 -168 35 -66 88 -119 149 -149 47 -22
70 -27 138 -27 75 -1 86 2 134 32 l53 32 38 -30 c68 -54 70 -51 70 125 0 176
7 165 -89 139 l-58 -17 -6 -56 c-13 -127 -61 -201 -131 -201 -50 0 -108 54
-138 128 -31 79 -33 268 -4 356 22 67 84 140 129 151 75 19 169 -45 199 -136
16 -49 45 -64 52 -27 3 13 7 58 10 100 l4 77 -51 5 c-113 12 -215 14 -269 5z"/>
<path d="M18458 3259 c-32 -4 -71 -15 -88 -24 -51 -27 -110 -86 -138 -139 -25
-47 -27 -60 -27 -176 0 -140 10 -172 81 -250 57 -63 131 -93 228 -94 97 -1
145 14 198 62 34 31 68 79 68 97 0 14 -43 3 -76 -20 -117 -80 -251 -33 -316
110 -18 41 -23 68 -23 150 0 88 3 107 25 149 51 99 153 143 226 97 40 -25 80
-77 97 -127 16 -45 44 -57 51 -22 3 13 7 58 10 100 l4 77 -51 5 c-113 12 -215
14 -269 5z"/>
<path d="M13585 2949 c-122 -316 -139 -349 -186 -349 -11 0 -19 -4 -19 -10 0
-6 38 -10 95 -10 98 0 117 7 65 27 -36 14 -36 19 -1 108 l27 70 118 0 119 0
34 -80 c32 -74 33 -80 17 -92 -10 -7 -26 -13 -36 -13 -10 0 -18 -4 -18 -10 0
-6 60 -10 160 -10 100 0 160 4 160 10 0 6 -7 10 -15 10 -44 0 -75 55 -199 355
l-125 300 -38 3 -38 3 -120 -312z m154 -8 c28 -68 51 -125 51 -127 0 -2 -47
-4 -105 -4 -58 0 -105 2 -105 5 0 6 89 235 96 247 8 13 6 18 63 -121z"/>
<path d="M12907 3147 c-32 -54 -56 -76 -103 -92 -51 -17 -55 -35 -10 -35 l36
0 0 -176 c0 -144 3 -182 17 -211 26 -55 105 -79 163 -50 29 15 70 72 70 98 0
25 -32 24 -48 -1 -16 -25 -38 -26 -52 -1 -6 11 -10 89 -10 180 l0 161 55 0
c30 0 55 5 55 10 0 6 -25 10 -55 10 l-55 0 0 75 c0 67 -2 75 -19 75 -12 0 -29
-16 -44 -43z"/>
<path d="M12398 3050 c-45 -24 -95 -84 -108 -130 -14 -49 -12 -148 4 -193 20
-55 62 -104 109 -129 61 -32 185 -32 245 0 37 20 82 71 82 95 0 15 -38 6 -55
-13 -26 -29 -77 -40 -122 -28 -36 10 -103 66 -103 86 0 5 31 12 68 16 81 8
164 44 188 82 25 37 24 119 -1 162 -30 51 -86 72 -186 72 -63 -1 -93 -6 -121
-20z m161 -26 c62 -79 23 -206 -74 -239 -51 -17 -55 -11 -55 85 0 141 72 227
129 154z"/>
<path d="M14279 3043 c-35 -19 -64 -43 -84 -71 -27 -39 -30 -53 -33 -131 -5
-124 30 -195 122 -244 59 -32 184 -31 241 1 35 20 85 76 85 95 0 15 -38 6 -55
-13 -39 -44 -122 -44 -178 0 -112 88 -80 370 42 370 41 0 86 -34 111 -84 14
-30 28 -46 40 -46 16 0 19 10 22 68 2 37 2 70 0 75 -2 4 -61 7 -131 7 -119 0
-131 -2 -182 -27z"/>
<path d="M14795 3053 c-54 -28 -105 -88 -105 -123 0 -21 32 -9 61 25 59 67
149 68 204 4 35 -43 32 -56 -17 -69 -159 -41 -216 -65 -242 -102 -19 -26 -21
-115 -5 -151 18 -41 66 -62 141 -62 58 0 72 4 111 31 l45 32 12 -23 c22 -41
84 -57 134 -34 22 11 66 82 66 109 0 19 -39 10 -45 -10 -15 -47 -23 -11 -27
118 -3 124 -5 141 -28 182 -38 68 -85 90 -190 89 -58 0 -95 -5 -115 -16z m185
-249 c0 -40 -6 -79 -16 -100 -16 -34 -67 -84 -85 -84 -21 0 -48 42 -54 84 -11
71 16 115 85 143 30 12 58 23 63 23 4 0 7 -30 7 -66z"/>
<path d="M15948 3050 c-45 -24 -95 -84 -108 -130 -14 -49 -12 -148 4 -193 20
-55 62 -104 109 -129 61 -32 185 -32 245 0 37 20 82 71 82 95 0 15 -38 6 -55
-13 -26 -29 -77 -40 -122 -28 -36 10 -103 66 -103 86 0 5 31 12 68 16 81 8
164 44 188 82 25 37 24 119 -1 162 -30 51 -86 72 -186 72 -63 -1 -93 -6 -121
-20z m161 -26 c62 -79 23 -206 -74 -239 -51 -17 -55 -11 -55 85 0 141 72 227
129 154z"/>
<path d="M16485 3060 c-11 -5 -40 -9 -65 -9 -83 -2 -126 -26 -57 -33 l32 -3 3
-199 c3 -212 2 -216 -45 -216 -13 0 -23 -4 -23 -10 0 -6 53 -10 140 -10 87 0
140 4 140 10 0 6 -11 10 -24 10 -44 0 -49 19 -44 172 3 128 6 148 28 192 33
67 52 77 84 47 35 -33 46 -92 46 -248 0 -147 -5 -163 -47 -163 -13 0 -23 -4
-23 -10 0 -6 53 -10 140 -10 87 0 140 4 140 10 0 6 -10 10 -22 10 -49 0 -50 7
-46 171 3 130 7 161 25 201 37 82 89 71 118 -25 19 -64 21 -317 3 -335 -7 -7
-22 -12 -35 -12 -13 0 -23 -4 -23 -10 0 -6 53 -10 140 -10 87 0 140 4 140 10
0 6 -10 10 -22 10 -43 0 -45 9 -50 175 -4 136 -7 167 -25 207 -29 65 -69 88
-151 88 -59 0 -67 -3 -96 -32 -18 -18 -36 -40 -39 -48 -6 -13 -8 -13 -14 0 -3
8 -21 30 -39 48 -30 30 -36 32 -104 32 -66 0 -74 -2 -101 -29 l-29 -29 0 29
c0 31 -15 36 -55 19z"/>
<path d="M17320 3060 c-14 -4 -47 -8 -73 -9 -34 -1 -47 -5 -45 -13 3 -7 14
-14 25 -16 12 -2 27 -11 35 -20 8 -9 54 -108 102 -220 l87 -202 -24 -48 c-42
-86 -136 -106 -191 -42 -41 49 -52 40 -60 -47 -4 -49 -2 -81 4 -87 6 -6 46
-12 88 -14 125 -6 112 -23 306 426 69 161 126 295 126 298 0 4 -17 3 -37 0
-21 -4 -64 -9 -95 -12 -32 -4 -58 -9 -58 -13 0 -3 14 -14 30 -23 37 -21 54
-61 45 -107 -6 -34 -50 -141 -58 -141 -2 0 -33 68 -67 150 -59 140 -64 150
-89 149 -14 -1 -37 -5 -51 -9z"/>
<path d="M17696 2694 c-37 -37 -6 -124 44 -124 25 0 25 -16 -1 -59 -15 -24
-17 -37 -9 -45 16 -16 39 3 73 62 36 65 42 146 12 168 -26 19 -100 18 -119 -2z"/>
<path d="M1768 1624 c-5 -4 -8 -21 -7 -38 0 -30 0 -30 10 -7 11 27 8 57 -3 45z"/>
<path d="M1710 1584 c0 -9 5 -14 12 -12 18 6 21 28 4 28 -9 0 -16 -7 -16 -16z"/>
<path d="M1771 1114 c0 -11 3 -14 6 -6 3 7 2 16 -1 19 -3 4 -6 -2 -5 -13z"/>
<path d="M1590 770 c0 -5 5 -10 10 -10 6 0 10 5 10 10 0 6 -4 10 -10 10 -5 0
-10 -4 -10 -10z"/>
<path d="M1565 750 c-3 -5 -1 -10 4 -10 6 0 11 5 11 10 0 6 -2 10 -4 10 -3 0
-8 -4 -11 -10z"/>
</g>
</svg>
